<svg width="30" height="26" viewBox="0 0 30 26" fill="none" xmlns="http://www.w3.org/2000/svg">
<path d="M28.75 11.75H1.25C0.559644 11.75 0 12.3096 0 13C0 13.6904 0.559644 14.25 1.25 14.25H28.75C29.4404 14.25 30 13.6904 30 13C30 12.3096 29.4404 11.75 28.75 11.75Z" fill="white"/>
<path d="M13.3834 2.63435C13.6178 2.39993 13.75 2.08152 13.75 1.75C13.75 1.41848 13.6183 1.10054 13.3839 0.866116L13.3731 0.855456C13.1397 0.628 12.8259 0.5 12.5 0.5C12.1685 0.5 11.8505 0.631696 11.6161 0.866116L0.366116 12.1161C0.131696 12.3505 0 12.6685 0 13C-7.45058e-08 13.3315 0.131696 13.6495 0.366116 13.8839L11.6161 25.1339C11.8505 25.3683 12.1685 25.5 12.5 25.5C12.8315 25.5 13.1495 25.3683 13.3839 25.1339C13.6183 24.8995 13.75 24.5815 13.75 24.25C13.75 23.9185 13.6183 23.6005 13.3839 23.3661L3.01777 13L13.3834 2.63435Z" fill="white"/>
</svg>
