<svg width="24" height="24" viewBox="0 0 24 24" fill="none" xmlns="http://www.w3.org/2000/svg">
<path d="M11.001 10H13.001V15H11.001V10ZM11 16H13V18H11V16Z" fill="white"/>
<path d="M13.7683 4.19872C13.4203 3.54372 12.7423 3.13672 12.0003 3.13672C11.2583 3.13672 10.5803 3.54372 10.2323 4.19972L2.89432 18.0627C2.73188 18.3673 2.65144 18.7088 2.66091 19.0539C2.67037 19.3989 2.76942 19.7355 2.94832 20.0307C3.12472 20.3274 3.3756 20.5728 3.67607 20.7426C3.97655 20.9124 4.31619 21.0007 4.66132 20.9987H19.3393C20.0473 20.9987 20.6883 20.6367 21.0533 20.0307C21.2322 19.7355 21.3313 19.3989 21.3407 19.0539C21.3502 18.7088 21.2698 18.3673 21.1073 18.0627L13.7683 4.19872ZM4.66132 18.9987L12.0003 5.13572L19.3443 18.9987H4.66132Z" fill="white"/>
</svg>
