<svg width="420" height="43" viewBox="0 0 420 43" fill="none" xmlns="http://www.w3.org/2000/svg">
<g clip-path="url(#clip0_609_11695)">
<g filter="url(#filter0_ddd_609_11695)">
<rect width="420" height="42.1279" fill="#474747"/>
<rect width="420" height="42.1279" fill="url(#paint0_linear_609_11695)" style="mix-blend-mode:overlay"/>
</g>
<rect opacity="0.5" y="21.3447" width="420" height="20.7831" fill="#474747"/>
<g style="mix-blend-mode:overlay" opacity="0.7">
<ellipse cx="210" cy="38.4764" rx="196.5" ry="17.132" transform="rotate(-180 210 38.4764)" fill="url(#paint1_radial_609_11695)"/>
</g>
<g style="mix-blend-mode:overlay" opacity="0.7">
<ellipse cx="210.113" cy="2.87206" rx="195.54" ry="6.70215" transform="rotate(-180 210.113 2.87206)" fill="url(#paint2_radial_609_11695)"/>
</g>
<g style="mix-blend-mode:overlay">
<rect x="24.2891" width="369.218" height="0.957451" fill="url(#paint3_linear_609_11695)"/>
</g>
<g style="mix-blend-mode:overlay" opacity="0.5">
<rect x="24.2891" y="41.1699" width="369.218" height="0.957451" fill="url(#paint4_linear_609_11695)"/>
</g>
<path d="M111.592 21.416C111.592 20.328 111.843 19.352 112.344 18.488C112.856 17.624 113.544 16.952 114.408 16.472C115.283 15.9813 116.237 15.736 117.272 15.736C118.456 15.736 119.507 16.0293 120.424 16.616C121.352 17.192 122.024 18.0133 122.44 19.08H120.248C119.96 18.4933 119.56 18.056 119.048 17.768C118.536 17.48 117.944 17.336 117.272 17.336C116.536 17.336 115.88 17.5013 115.304 17.832C114.728 18.1627 114.275 18.6373 113.944 19.256C113.624 19.8747 113.464 20.5947 113.464 21.416C113.464 22.2373 113.624 22.9573 113.944 23.576C114.275 24.1947 114.728 24.6747 115.304 25.016C115.88 25.3467 116.536 25.512 117.272 25.512C117.944 25.512 118.536 25.368 119.048 25.08C119.56 24.792 119.96 24.3547 120.248 23.768H122.44C122.024 24.8347 121.352 25.656 120.424 26.232C119.507 26.808 118.456 27.096 117.272 27.096C116.227 27.096 115.272 26.856 114.408 26.376C113.544 25.8853 112.856 25.208 112.344 24.344C111.843 23.48 111.592 22.504 111.592 21.416ZM123.967 22.552C123.967 21.6667 124.148 20.8827 124.511 20.2C124.884 19.5173 125.386 18.9893 126.015 18.616C126.655 18.232 127.359 18.04 128.127 18.04C128.82 18.04 129.423 18.1787 129.935 18.456C130.458 18.7227 130.874 19.0587 131.183 19.464V18.184H133.023V27H131.183V25.688C130.874 26.104 130.452 26.4507 129.919 26.728C129.386 27.0053 128.778 27.144 128.095 27.144C127.338 27.144 126.644 26.952 126.015 26.568C125.386 26.1733 124.884 25.6293 124.511 24.936C124.148 24.232 123.967 23.4373 123.967 22.552ZM131.183 22.584C131.183 21.976 131.055 21.448 130.799 21C130.554 20.552 130.228 20.2107 129.823 19.976C129.418 19.7413 128.98 19.624 128.511 19.624C128.042 19.624 127.604 19.7413 127.199 19.976C126.794 20.2 126.463 20.536 126.207 20.984C125.962 21.4213 125.839 21.944 125.839 22.552C125.839 23.16 125.962 23.6933 126.207 24.152C126.463 24.6107 126.794 24.9627 127.199 25.208C127.615 25.4427 128.052 25.56 128.511 25.56C128.98 25.56 129.418 25.4427 129.823 25.208C130.228 24.9733 130.554 24.632 130.799 24.184C131.055 23.7253 131.183 23.192 131.183 22.584ZM137.243 15.16V27H135.419V15.16H137.243ZM140.566 17.016C140.235 17.016 139.958 16.904 139.734 16.68C139.51 16.456 139.398 16.1787 139.398 15.848C139.398 15.5173 139.51 15.24 139.734 15.016C139.958 14.792 140.235 14.68 140.566 14.68C140.886 14.68 141.158 14.792 141.382 15.016C141.606 15.24 141.718 15.5173 141.718 15.848C141.718 16.1787 141.606 16.456 141.382 16.68C141.158 16.904 140.886 17.016 140.566 17.016ZM141.462 18.184V27H139.638V18.184H141.462ZM145.68 19.496C145.99 19.0693 146.411 18.7227 146.944 18.456C147.488 18.1787 148.091 18.04 148.752 18.04C149.531 18.04 150.235 18.2267 150.864 18.6C151.494 18.9733 151.99 19.5067 152.352 20.2C152.715 20.8827 152.896 21.6667 152.896 22.552C152.896 23.4373 152.715 24.232 152.352 24.936C151.99 25.6293 151.488 26.1733 150.848 26.568C150.219 26.952 149.52 27.144 148.752 27.144C148.07 27.144 147.462 27.0107 146.928 26.744C146.406 26.4773 145.99 26.136 145.68 25.72V27H143.856V15.16H145.68V19.496ZM151.04 22.552C151.04 21.944 150.912 21.4213 150.656 20.984C150.411 20.536 150.08 20.2 149.664 19.976C149.259 19.7413 148.822 19.624 148.352 19.624C147.894 19.624 147.456 19.7413 147.04 19.976C146.635 20.2107 146.304 20.552 146.048 21C145.803 21.448 145.68 21.976 145.68 22.584C145.68 23.192 145.803 23.7253 146.048 24.184C146.304 24.632 146.635 24.9733 147.04 25.208C147.456 25.4427 147.894 25.56 148.352 25.56C148.822 25.56 149.259 25.4427 149.664 25.208C150.08 24.9627 150.411 24.6107 150.656 24.152C150.912 23.6933 151.04 23.16 151.04 22.552ZM156.524 19.464C156.791 19.016 157.143 18.6693 157.58 18.424C158.028 18.168 158.556 18.04 159.164 18.04V19.928H158.7C157.985 19.928 157.441 20.1093 157.068 20.472C156.705 20.8347 156.524 21.464 156.524 22.36V27H154.7V18.184H156.524V19.464ZM160.233 22.552C160.233 21.6667 160.414 20.8827 160.777 20.2C161.15 19.5173 161.651 18.9893 162.281 18.616C162.921 18.232 163.625 18.04 164.393 18.04C165.086 18.04 165.689 18.1787 166.201 18.456C166.723 18.7227 167.139 19.0587 167.449 19.464V18.184H169.289V27H167.449V25.688C167.139 26.104 166.718 26.4507 166.185 26.728C165.651 27.0053 165.043 27.144 164.361 27.144C163.603 27.144 162.91 26.952 162.281 26.568C161.651 26.1733 161.15 25.6293 160.777 24.936C160.414 24.232 160.233 23.4373 160.233 22.552ZM167.449 22.584C167.449 21.976 167.321 21.448 167.065 21C166.819 20.552 166.494 20.2107 166.089 19.976C165.683 19.7413 165.246 19.624 164.777 19.624C164.307 19.624 163.87 19.7413 163.465 19.976C163.059 20.2 162.729 20.536 162.473 20.984C162.227 21.4213 162.105 21.944 162.105 22.552C162.105 23.16 162.227 23.6933 162.473 24.152C162.729 24.6107 163.059 24.9627 163.465 25.208C163.881 25.4427 164.318 25.56 164.777 25.56C165.246 25.56 165.683 25.4427 166.089 25.208C166.494 24.9733 166.819 24.632 167.065 24.184C167.321 23.7253 167.449 23.192 167.449 22.584ZM173.812 19.672V24.552C173.812 24.8827 173.887 25.1227 174.036 25.272C174.196 25.4107 174.463 25.48 174.836 25.48H175.956V27H174.516C173.695 27 173.066 26.808 172.628 26.424C172.191 26.04 171.972 25.416 171.972 24.552V19.672H170.932V18.184H171.972V15.992H173.812V18.184H175.956V19.672H173.812ZM185.718 22.376C185.718 22.7067 185.696 23.0053 185.654 23.272H178.918C178.971 23.976 179.232 24.5413 179.702 24.968C180.171 25.3947 180.747 25.608 181.43 25.608C182.411 25.608 183.104 25.1973 183.51 24.376H185.477C185.211 25.1867 184.726 25.8533 184.022 26.376C183.328 26.888 182.464 27.144 181.43 27.144C180.587 27.144 179.83 26.9573 179.158 26.584C178.496 26.2 177.974 25.6667 177.59 24.984C177.216 24.2907 177.03 23.4907 177.03 22.584C177.03 21.6773 177.211 20.8827 177.574 20.2C177.947 19.5067 178.464 18.9733 179.126 18.6C179.798 18.2267 180.566 18.04 181.43 18.04C182.262 18.04 183.003 18.2213 183.654 18.584C184.304 18.9467 184.811 19.4587 185.174 20.12C185.536 20.7707 185.718 21.5227 185.718 22.376ZM183.814 21.8C183.803 21.128 183.563 20.5893 183.094 20.184C182.624 19.7787 182.043 19.576 181.35 19.576C180.72 19.576 180.182 19.7787 179.734 20.184C179.286 20.5787 179.019 21.1173 178.934 21.8H183.814ZM198.373 24.728H193.717L192.917 27H191.013L194.997 15.864H197.109L201.093 27H199.173L198.373 24.728ZM197.861 23.24L196.053 18.072L194.229 23.24H197.861ZM202.217 22.584C202.217 21.6773 202.398 20.8827 202.761 20.2C203.134 19.5067 203.646 18.9733 204.297 18.6C204.948 18.2267 205.694 18.04 206.537 18.04C207.604 18.04 208.484 18.296 209.177 18.808C209.881 19.3093 210.356 20.0293 210.601 20.968H208.633C208.473 20.5307 208.217 20.1893 207.865 19.944C207.513 19.6987 207.07 19.576 206.537 19.576C205.79 19.576 205.193 19.8427 204.745 20.376C204.308 20.8987 204.089 21.6347 204.089 22.584C204.089 23.5333 204.308 24.2747 204.745 24.808C205.193 25.3413 205.79 25.608 206.537 25.608C207.593 25.608 208.292 25.144 208.633 24.216H210.601C210.345 25.112 209.865 25.8267 209.161 26.36C208.457 26.8827 207.582 27.144 206.537 27.144C205.694 27.144 204.948 26.9573 204.297 26.584C203.646 26.2 203.134 25.6667 202.761 24.984C202.398 24.2907 202.217 23.4907 202.217 22.584ZM211.811 22.584C211.811 21.6773 211.992 20.8827 212.355 20.2C212.728 19.5067 213.24 18.9733 213.891 18.6C214.541 18.2267 215.288 18.04 216.131 18.04C217.197 18.04 218.077 18.296 218.771 18.808C219.475 19.3093 219.949 20.0293 220.195 20.968H218.227C218.067 20.5307 217.811 20.1893 217.459 19.944C217.107 19.6987 216.664 19.576 216.131 19.576C215.384 19.576 214.787 19.8427 214.339 20.376C213.901 20.8987 213.683 21.6347 213.683 22.584C213.683 23.5333 213.901 24.2747 214.339 24.808C214.787 25.3413 215.384 25.608 216.131 25.608C217.187 25.608 217.885 25.144 218.227 24.216H220.195C219.939 25.112 219.459 25.8267 218.755 26.36C218.051 26.8827 217.176 27.144 216.131 27.144C215.288 27.144 214.541 26.9573 213.891 26.584C213.24 26.2 212.728 25.6667 212.355 24.984C211.992 24.2907 211.811 23.4907 211.811 22.584ZM230.093 22.376C230.093 22.7067 230.071 23.0053 230.029 23.272H223.293C223.346 23.976 223.607 24.5413 224.077 24.968C224.546 25.3947 225.122 25.608 225.805 25.608C226.786 25.608 227.479 25.1973 227.885 24.376H229.852C229.586 25.1867 229.101 25.8533 228.397 26.376C227.703 26.888 226.839 27.144 225.805 27.144C224.962 27.144 224.205 26.9573 223.533 26.584C222.871 26.2 222.349 25.6667 221.965 24.984C221.591 24.2907 221.405 23.4907 221.405 22.584C221.405 21.6773 221.586 20.8827 221.949 20.2C222.322 19.5067 222.839 18.9733 223.501 18.6C224.173 18.2267 224.941 18.04 225.805 18.04C226.637 18.04 227.378 18.2213 228.029 18.584C228.679 18.9467 229.186 19.4587 229.549 20.12C229.911 20.7707 230.093 21.5227 230.093 22.376ZM228.189 21.8C228.178 21.128 227.938 20.5893 227.469 20.184C226.999 19.7787 226.418 19.576 225.725 19.576C225.095 19.576 224.557 19.7787 224.109 20.184C223.661 20.5787 223.394 21.1173 223.309 21.8H228.189ZM233.712 15.16V27H231.888V15.16H233.712ZM244.186 22.376C244.186 22.7067 244.165 23.0053 244.122 23.272H237.386C237.44 23.976 237.701 24.5413 238.17 24.968C238.64 25.3947 239.216 25.608 239.898 25.608C240.88 25.608 241.573 25.1973 241.978 24.376H243.946C243.68 25.1867 243.194 25.8533 242.49 26.376C241.797 26.888 240.933 27.144 239.898 27.144C239.056 27.144 238.298 26.9573 237.626 26.584C236.965 26.2 236.442 25.6667 236.058 24.984C235.685 24.2907 235.498 23.4907 235.498 22.584C235.498 21.6773 235.68 20.8827 236.042 20.2C236.416 19.5067 236.933 18.9733 237.594 18.6C238.266 18.2267 239.034 18.04 239.898 18.04C240.73 18.04 241.472 18.2213 242.122 18.584C242.773 18.9467 243.28 19.4587 243.642 20.12C244.005 20.7707 244.186 21.5227 244.186 22.376ZM242.282 21.8C242.272 21.128 242.032 20.5893 241.562 20.184C241.093 19.7787 240.512 19.576 239.818 19.576C239.189 19.576 238.65 19.7787 238.202 20.184C237.754 20.5787 237.488 21.1173 237.402 21.8H242.282ZM247.805 19.464C248.072 19.016 248.424 18.6693 248.861 18.424C249.309 18.168 249.837 18.04 250.445 18.04V19.928H249.981C249.267 19.928 248.723 20.1093 248.349 20.472C247.987 20.8347 247.805 21.464 247.805 22.36V27H245.981V18.184H247.805V19.464ZM255.946 27.144C255.114 27.144 254.362 26.9573 253.69 26.584C253.018 26.2 252.49 25.6667 252.106 24.984C251.722 24.2907 251.53 23.4907 251.53 22.584C251.53 21.688 251.727 20.8933 252.122 20.2C252.517 19.5067 253.055 18.9733 253.738 18.6C254.421 18.2267 255.183 18.04 256.026 18.04C256.869 18.04 257.631 18.2267 258.314 18.6C258.997 18.9733 259.535 19.5067 259.93 20.2C260.325 20.8933 260.522 21.688 260.522 22.584C260.522 23.48 260.319 24.2747 259.914 24.968C259.509 25.6613 258.954 26.2 258.25 26.584C257.557 26.9573 256.789 27.144 255.946 27.144ZM255.946 25.56C256.415 25.56 256.853 25.448 257.258 25.224C257.674 25 258.01 24.664 258.266 24.216C258.522 23.768 258.65 23.224 258.65 22.584C258.65 21.944 258.527 21.4053 258.282 20.968C258.037 20.52 257.711 20.184 257.306 19.96C256.901 19.736 256.463 19.624 255.994 19.624C255.525 19.624 255.087 19.736 254.682 19.96C254.287 20.184 253.973 20.52 253.738 20.968C253.503 21.4053 253.386 21.944 253.386 22.584C253.386 23.5333 253.626 24.2693 254.106 24.792C254.597 25.304 255.21 25.56 255.946 25.56ZM272.997 18.04C273.69 18.04 274.309 18.184 274.853 18.472C275.408 18.76 275.84 19.1867 276.149 19.752C276.469 20.3173 276.629 21 276.629 21.8V27H274.821V22.072C274.821 21.2827 274.624 20.68 274.229 20.264C273.834 19.8373 273.296 19.624 272.613 19.624C271.93 19.624 271.386 19.8373 270.981 20.264C270.586 20.68 270.389 21.2827 270.389 22.072V27H268.581V22.072C268.581 21.2827 268.384 20.68 267.989 20.264C267.594 19.8373 267.056 19.624 266.373 19.624C265.69 19.624 265.146 19.8373 264.741 20.264C264.346 20.68 264.149 21.2827 264.149 22.072V27H262.325V18.184H264.149V19.192C264.448 18.8293 264.826 18.5467 265.285 18.344C265.744 18.1413 266.234 18.04 266.757 18.04C267.461 18.04 268.09 18.1893 268.645 18.488C269.2 18.7867 269.626 19.2187 269.925 19.784C270.192 19.2507 270.608 18.8293 271.173 18.52C271.738 18.2 272.346 18.04 272.997 18.04ZM287.03 22.376C287.03 22.7067 287.009 23.0053 286.966 23.272H280.23C280.283 23.976 280.545 24.5413 281.014 24.968C281.483 25.3947 282.059 25.608 282.742 25.608C283.723 25.608 284.417 25.1973 284.822 24.376H286.79C286.523 25.1867 286.038 25.8533 285.334 26.376C284.641 26.888 283.777 27.144 282.742 27.144C281.899 27.144 281.142 26.9573 280.47 26.584C279.809 26.2 279.286 25.6667 278.902 24.984C278.529 24.2907 278.342 23.4907 278.342 22.584C278.342 21.6773 278.523 20.8827 278.886 20.2C279.259 19.5067 279.777 18.9733 280.438 18.6C281.11 18.2267 281.878 18.04 282.742 18.04C283.574 18.04 284.315 18.2213 284.966 18.584C285.617 18.9467 286.123 19.4587 286.486 20.12C286.849 20.7707 287.03 21.5227 287.03 22.376ZM285.126 21.8C285.115 21.128 284.875 20.5893 284.406 20.184C283.937 19.7787 283.355 19.576 282.662 19.576C282.033 19.576 281.494 19.7787 281.046 20.184C280.598 20.5787 280.331 21.1173 280.246 21.8H285.126ZM290.953 19.672V24.552C290.953 24.8827 291.028 25.1227 291.177 25.272C291.337 25.4107 291.604 25.48 291.977 25.48H293.097V27H291.657C290.836 27 290.206 26.808 289.769 26.424C289.332 26.04 289.113 25.416 289.113 24.552V19.672H288.073V18.184H289.113V15.992H290.953V18.184H293.097V19.672H290.953ZM302.858 22.376C302.858 22.7067 302.837 23.0053 302.794 23.272H296.058C296.111 23.976 296.373 24.5413 296.842 24.968C297.311 25.3947 297.887 25.608 298.57 25.608C299.551 25.608 300.245 25.1973 300.65 24.376H302.618C302.351 25.1867 301.866 25.8533 301.162 26.376C300.469 26.888 299.605 27.144 298.57 27.144C297.727 27.144 296.97 26.9573 296.298 26.584C295.637 26.2 295.114 25.6667 294.73 24.984C294.357 24.2907 294.17 23.4907 294.17 22.584C294.17 21.6773 294.351 20.8827 294.714 20.2C295.087 19.5067 295.605 18.9733 296.266 18.6C296.938 18.2267 297.706 18.04 298.57 18.04C299.402 18.04 300.143 18.2213 300.794 18.584C301.445 18.9467 301.951 19.4587 302.314 20.12C302.677 20.7707 302.858 21.5227 302.858 22.376ZM300.954 21.8C300.943 21.128 300.703 20.5893 300.234 20.184C299.765 19.7787 299.183 19.576 298.49 19.576C297.861 19.576 297.322 19.7787 296.874 20.184C296.426 20.5787 296.159 21.1173 296.074 21.8H300.954ZM306.477 19.464C306.744 19.016 307.096 18.6693 307.533 18.424C307.981 18.168 308.509 18.04 309.117 18.04V19.928H308.653C307.938 19.928 307.394 20.1093 307.021 20.472C306.658 20.8347 306.477 21.464 306.477 22.36V27H304.653V18.184H306.477V19.464Z" fill="#E8E8E8"/>
</g>
<defs>
<filter id="filter0_ddd_609_11695" x="-20.7958" y="-18.7163" width="461.592" height="83.7196" filterUnits="userSpaceOnUse" color-interpolation-filters="sRGB">
<feFlood flood-opacity="0" result="BackgroundImageFix"/>
<feColorMatrix in="SourceAlpha" type="matrix" values="0 0 0 0 0 0 0 0 0 0 0 0 0 0 0 0 0 0 127 0" result="hardAlpha"/>
<feOffset dy="2.07958"/>
<feGaussianBlur stdDeviation="10.3979"/>
<feColorMatrix type="matrix" values="0 0 0 0 0 0 0 0 0 0 0 0 0 0 0 0 0 0 0.2 0"/>
<feBlend mode="normal" in2="BackgroundImageFix" result="effect1_dropShadow_609_11695"/>
<feColorMatrix in="SourceAlpha" type="matrix" values="0 0 0 0 0 0 0 0 0 0 0 0 0 0 0 0 0 0 127 0" result="hardAlpha"/>
<feOffset dy="8.31834"/>
<feGaussianBlur stdDeviation="5.19896"/>
<feColorMatrix type="matrix" values="0 0 0 0 0 0 0 0 0 0 0 0 0 0 0 0 0 0 0.12 0"/>
<feBlend mode="normal" in2="effect1_dropShadow_609_11695" result="effect2_dropShadow_609_11695"/>
<feColorMatrix in="SourceAlpha" type="matrix" values="0 0 0 0 0 0 0 0 0 0 0 0 0 0 0 0 0 0 127 0" result="hardAlpha"/>
<feOffset dy="4.15917"/>
<feGaussianBlur stdDeviation="4.15917"/>
<feColorMatrix type="matrix" values="0 0 0 0 0 0 0 0 0 0 0 0 0 0 0 0 0 0 0.14 0"/>
<feBlend mode="normal" in2="effect2_dropShadow_609_11695" result="effect3_dropShadow_609_11695"/>
<feBlend mode="normal" in="SourceGraphic" in2="effect3_dropShadow_609_11695" result="shape"/>
</filter>
<linearGradient id="paint0_linear_609_11695" x1="210" y1="0" x2="210" y2="42.1279" gradientUnits="userSpaceOnUse">
<stop stop-color="white"/>
<stop offset="1" stop-color="white" stop-opacity="0"/>
</linearGradient>
<radialGradient id="paint1_radial_609_11695" cx="0" cy="0" r="1" gradientUnits="userSpaceOnUse" gradientTransform="translate(210 38.4764) rotate(90) scale(17.132 196.5)">
<stop stop-color="white"/>
<stop offset="1" stop-color="white" stop-opacity="0"/>
</radialGradient>
<radialGradient id="paint2_radial_609_11695" cx="0" cy="0" r="1" gradientUnits="userSpaceOnUse" gradientTransform="translate(210.113 2.87206) rotate(90) scale(6.70215 195.54)">
<stop stop-color="white"/>
<stop offset="1" stop-color="white" stop-opacity="0"/>
</radialGradient>
<linearGradient id="paint3_linear_609_11695" x1="391.451" y1="0" x2="23.3609" y2="0" gradientUnits="userSpaceOnUse">
<stop stop-color="white" stop-opacity="0"/>
<stop offset="0.492063" stop-color="white"/>
<stop offset="1" stop-color="white" stop-opacity="0"/>
</linearGradient>
<linearGradient id="paint4_linear_609_11695" x1="391.451" y1="41.1699" x2="23.3609" y2="41.1699" gradientUnits="userSpaceOnUse">
<stop stop-color="white" stop-opacity="0"/>
<stop offset="0.492063" stop-color="white"/>
<stop offset="1" stop-color="white" stop-opacity="0"/>
</linearGradient>
<clipPath id="clip0_609_11695">
<rect width="420" height="42.1279" rx="6" fill="white"/>
</clipPath>
</defs>
</svg>
