<svg width="28" height="28" viewBox="0 0 28 28" fill="none" xmlns="http://www.w3.org/2000/svg">
<path d="M25.9984 2.0016C25.8325 1.83729 25.6085 1.74512 25.375 1.74512C25.1415 1.74512 24.9174 1.83729 24.7515 2.0016L19.25 7.5141L18.6594 6.92348C18.3352 6.59807 17.95 6.33986 17.5258 6.16368C17.1016 5.9875 16.6468 5.89681 16.1875 5.89681C15.7282 5.89681 15.2734 5.9875 14.8492 6.16368C14.425 6.33986 14.0398 6.59807 13.7156 6.92348L10.9375 9.7016L10.6859 9.4391C10.5159 9.29957 10.3001 9.22827 10.0804 9.23906C9.86073 9.24984 9.65293 9.34196 9.49741 9.49747C9.3419 9.65299 9.24978 9.8608 9.23899 10.0805C9.22821 10.3001 9.29951 10.516 9.43904 10.686L9.70154 10.9375L6.92342 13.7157C6.59801 14.0398 6.3398 14.4251 6.16362 14.8492C5.98744 15.2734 5.89675 15.7282 5.89675 16.1875C5.89675 16.6469 5.98744 17.1017 6.16362 17.5258C6.3398 17.95 6.59801 18.3353 6.92342 18.6594L7.51404 19.25L2.00154 24.7516C1.83723 24.9175 1.74506 25.1415 1.74506 25.375C1.74506 25.6085 1.83723 25.8326 2.00154 25.9985C2.16879 26.1602 2.39233 26.2506 2.62498 26.2506C2.85762 26.2506 3.08117 26.1602 3.24842 25.9985L8.74998 20.486L9.3406 21.0766C9.99814 21.7285 10.8866 22.0942 11.8125 22.0942C12.7384 22.0942 13.6268 21.7285 14.2844 21.0766L17.0625 18.2985L17.314 18.561C17.4813 18.7227 17.7048 18.8131 17.9375 18.8131C18.1701 18.8131 18.3937 18.7227 18.5609 18.561C18.7252 18.3951 18.8174 18.171 18.8174 17.9375C18.8174 17.704 18.7252 17.48 18.5609 17.3141L18.2984 17.0625L21.0765 14.2844C21.4019 13.9603 21.6602 13.575 21.8363 13.1508C22.0125 12.7267 22.1032 12.2719 22.1032 11.8125C22.1032 11.3532 22.0125 10.8984 21.8363 10.4742C21.6602 10.0501 21.4019 9.66483 21.0765 9.34066L20.4859 8.75004L25.9984 3.24848C26.1627 3.08258 26.2549 2.85853 26.2549 2.62504C26.2549 2.39155 26.1627 2.1675 25.9984 2.0016ZM19.8406 13.0485L17.0625 15.8266L12.1734 10.9375L14.9515 8.15941C15.1132 7.99605 15.3057 7.86637 15.5179 7.77786C15.73 7.68936 15.9576 7.64379 16.1875 7.64379C16.4173 7.64379 16.6449 7.68936 16.8571 7.77786C17.0692 7.86637 17.2617 7.99605 17.4234 8.15941L19.8406 10.5766C20.004 10.7383 20.1336 10.9308 20.2222 11.1429C20.3107 11.3551 20.3562 11.5827 20.3562 11.8125C20.3562 12.0424 20.3107 12.27 20.2222 12.4821C20.1336 12.6943 20.004 12.8868 19.8406 13.0485ZM25.3312 17.7735C25.2751 17.9494 25.1642 18.1027 25.0146 18.211C24.865 18.3193 24.6846 18.3768 24.5 18.375C24.407 18.3765 24.3144 18.3617 24.2265 18.3313L21.6015 17.4563C21.4924 17.4204 21.3914 17.3633 21.3042 17.2884C21.2171 17.2134 21.1456 17.1221 21.0938 17.0195C21.042 16.9169 21.011 16.8051 21.0024 16.6905C20.9938 16.5759 21.0078 16.4608 21.0437 16.3516C21.0796 16.2424 21.1367 16.1414 21.2116 16.0543C21.2866 15.9672 21.378 15.8957 21.4805 15.8439C21.5831 15.7921 21.6949 15.761 21.8095 15.7524C21.9241 15.7438 22.0393 15.7579 22.1484 15.7938L24.7734 16.6688C24.8826 16.7047 24.9836 16.7617 25.0707 16.8367C25.1578 16.9116 25.2293 17.003 25.2811 17.1056C25.3329 17.2082 25.364 17.32 25.3726 17.4346C25.3812 17.5491 25.3671 17.6643 25.3312 17.7735ZM2.66873 10.2266C2.70463 10.1174 2.76168 10.0164 2.83663 9.92929C2.91158 9.84218 3.00295 9.77068 3.10553 9.71888C3.20811 9.66708 3.3199 9.636 3.43449 9.6274C3.54909 9.61881 3.66425 9.63287 3.77342 9.66879L6.39842 10.5438C6.59611 10.6088 6.76418 10.7421 6.87245 10.9198C6.98072 11.0975 7.0221 11.308 6.98917 11.5135C6.95624 11.719 6.85116 11.906 6.69277 12.041C6.53439 12.176 6.33308 12.2501 6.12498 12.25C6.03198 12.2515 5.93944 12.2367 5.85154 12.2063L3.22654 11.3313C3.11737 11.2954 3.01635 11.2383 2.92923 11.1634C2.84212 11.0884 2.77062 10.9971 2.71882 10.8945C2.66702 10.7919 2.63594 10.6801 2.62734 10.5655C2.61875 10.4509 2.63281 10.3358 2.66873 10.2266ZM9.66873 3.77348C9.63282 3.66432 9.61876 3.54915 9.62736 3.43456C9.63596 3.31996 9.66705 3.20819 9.71885 3.10561C9.77064 3.00303 9.84214 2.91165 9.92925 2.8367C10.0164 2.76176 10.1174 2.7047 10.2265 2.66879C10.447 2.59627 10.6872 2.6143 10.8944 2.71891C11.1016 2.82352 11.2587 3.00614 11.3312 3.2266L12.2062 5.8516C12.2421 5.96076 12.2562 6.07593 12.2476 6.19053C12.239 6.30512 12.2079 6.4169 12.1561 6.51948C12.1043 6.62207 12.0328 6.71344 11.9457 6.78839C11.8586 6.86334 11.7576 6.92039 11.6484 6.95629C11.5605 6.98669 11.468 7.00149 11.375 7.00004C11.1903 7.00175 11.01 6.94426 10.8604 6.83601C10.7108 6.72775 10.5998 6.57441 10.5437 6.39848L9.66873 3.77348ZM18.3312 24.2266C18.3671 24.3358 18.3812 24.4509 18.3726 24.5655C18.364 24.6801 18.3329 24.7919 18.2811 24.8945C18.2293 24.9971 18.1578 25.0884 18.0707 25.1634C17.9836 25.2383 17.8826 25.2954 17.7734 25.3313C17.6855 25.3617 17.593 25.3765 17.5 25.375C17.3153 25.3768 17.135 25.3193 16.9854 25.211C16.8358 25.1027 16.7248 24.9494 16.6687 24.7735L15.7937 22.1485C15.7578 22.0393 15.7438 21.9242 15.7524 21.8096C15.761 21.695 15.792 21.5832 15.8438 21.4806C15.8956 21.378 15.9671 21.2867 16.0542 21.2117C16.1414 21.1368 16.2424 21.0797 16.3515 21.0438C16.4607 21.0079 16.5759 20.9938 16.6905 21.0024C16.8051 21.011 16.9168 21.0421 17.0194 21.0939C17.122 21.1457 17.2134 21.2172 17.2883 21.3043C17.3633 21.3914 17.4203 21.4924 17.4562 21.6016L18.3312 24.2266Z" fill="white"/>
</svg>
