<svg width="26" height="27" viewBox="0 0 26 27" fill="none" xmlns="http://www.w3.org/2000/svg">
<path d="M26 9.58236V8.49902H18.4167V9.58236H21.6667V10.6657H20.5833V12.8324H17.0083L15.3823 10.0157H10.6762L9.05125 12.8324H5.41667V10.6657H4.33333V9.58236H7.58333V8.49902H0V9.58236H3.25V10.6657H2.16667V16.0824H5.41667V14.999H8.84758L9.08158 15.4042C7.65478 16.1274 6.45598 17.2314 5.61792 18.594C4.77987 19.9565 4.33526 21.5244 4.33333 23.124C4.33333 23.2677 4.3904 23.4055 4.49198 23.507C4.59357 23.6086 4.73134 23.6657 4.875 23.6657C5.01866 23.6657 5.15643 23.6086 5.25802 23.507C5.3596 23.4055 5.41667 23.2677 5.41667 23.124C5.41842 21.7145 5.81297 20.3334 6.55602 19.1357C7.29906 17.938 8.36121 16.9711 9.62325 16.3434L10.6762 18.1667H15.3823L16.4223 16.3651C17.6725 16.9974 18.7232 17.9636 19.4577 19.1567C20.1922 20.3498 20.5818 21.723 20.5833 23.124C20.5833 23.2677 20.6404 23.4055 20.742 23.507C20.8436 23.6086 20.9813 23.6657 21.125 23.6657C21.2687 23.6657 21.4064 23.6086 21.508 23.507C21.6096 23.4055 21.6667 23.2677 21.6667 23.124C21.6651 21.5329 21.2256 19.9729 20.3963 18.615C19.567 17.2572 18.3798 16.1538 16.965 15.4259L17.2109 14.999H20.5833V16.0824H23.8333V10.6657H22.75V9.58236H26Z" fill="white"/>
</svg>
