<svg width="28" height="28" viewBox="0 0 28 28" fill="none" xmlns="http://www.w3.org/2000/svg">
<path d="M8.80023 10.04V14.66M11.1122 12.35H6.49023" stroke="white" stroke-opacity="0.5" stroke-linecap="round" stroke-linejoin="round"/>
<path d="M2.51205 10.4239L1.68805 17.8439C1.56976 18.9093 1.83005 19.9823 2.42333 20.875C3.0166 21.7678 3.90505 22.4233 4.93306 22.7269C5.96108 23.0305 7.06312 22.9627 8.04619 22.5354C9.02925 22.1082 9.83066 21.3487 10.3101 20.3899L11.0301 18.9499H16.9701L17.6901 20.3899C18.1702 21.3472 18.9716 22.1052 19.9541 22.5315C20.9366 22.9577 22.0377 23.0251 23.0648 22.7217C24.0919 22.4183 24.9796 21.7636 25.5729 20.8719C26.1661 19.9803 26.427 18.9085 26.3101 17.8439L25.4881 10.4239C25.3251 8.95617 24.6266 7.60005 23.5262 6.61516C22.4258 5.63026 21.0008 5.08578 19.5241 5.08594H8.47605C6.99927 5.08578 5.5743 5.63026 4.47391 6.61516C3.37351 7.60005 2.67499 8.95617 2.51205 10.4239Z" stroke="white" stroke-opacity="0.5" stroke-width="2" stroke-linejoin="round"/>
<path d="M20.9318 11.0281C20.806 11.0201 20.6879 10.9645 20.6016 10.8725C20.5154 10.7806 20.4673 10.6592 20.4673 10.5331C20.4673 10.407 20.5154 10.2856 20.6016 10.1937C20.6879 10.1017 20.806 10.0461 20.9318 10.0381M20.9318 11.0281C20.9995 11.0324 21.0673 11.0228 21.1311 10.9999C21.1949 10.9769 21.2533 10.9412 21.3027 10.8948C21.3522 10.8484 21.3916 10.7924 21.4185 10.7302C21.4454 10.668 21.4593 10.6009 21.4593 10.5331C21.4593 10.4653 21.4454 10.3983 21.4185 10.336C21.3916 10.2738 21.3522 10.2178 21.3027 10.1714C21.2533 10.125 21.1949 10.0893 21.1311 10.0663C21.0673 10.0434 20.9995 10.0338 20.9318 10.0381M17.4658 13.5041C17.4738 13.3783 17.5295 13.2602 17.6214 13.1739C17.7134 13.0876 17.8347 13.0396 17.9608 13.0396C18.0869 13.0396 18.2083 13.0876 18.3003 13.1739C18.3922 13.2602 18.4478 13.3783 18.4558 13.5041M17.4658 13.5041C17.4615 13.5718 17.4712 13.6396 17.4941 13.7034C17.517 13.7672 17.5528 13.8256 17.5992 13.875C17.6455 13.9244 17.7016 13.9638 17.7638 13.9908C17.826 14.0177 17.8931 14.0316 17.9608 14.0316C18.0286 14.0316 18.0957 14.0177 18.1579 13.9908C18.2201 13.9638 18.2761 13.9244 18.3225 13.875C18.3689 13.8256 18.4047 13.7672 18.4276 13.7034C18.4505 13.6396 18.4601 13.5718 18.4558 13.5041" stroke="white" stroke-opacity="0.5" stroke-linecap="round" stroke-linejoin="round"/>
</svg>
