<svg width="24" height="24" viewBox="0 0 24 24" fill="none" xmlns="http://www.w3.org/2000/svg">
<path d="M23.3987 15.884L20.6572 18.6255C20.4334 18.4894 20.1709 18.4109 19.8904 18.4109C19.5975 18.4109 19.3245 18.4969 19.0945 18.6443C19.0775 18.5968 19.0503 18.5521 19.0123 18.5142L15.255 14.7568C15.2377 14.7395 15.219 14.7244 15.1993 14.7114L15.449 10.4671C15.5156 10.4543 15.5792 10.422 15.6307 10.3704L20.5153 5.48588C20.5335 5.46761 20.5492 5.44775 20.5626 5.42685C20.5947 5.41036 20.6264 5.39312 20.6572 5.37443L23.3987 8.11597C23.4675 8.18473 23.5576 8.21915 23.6478 8.21915C23.7379 8.21915 23.8281 8.18478 23.8968 8.11597C24.0344 7.9784 24.0344 7.75541 23.8968 7.61784L21.1553 4.8763C21.2914 4.65255 21.3699 4.39006 21.3699 4.10957C21.3699 3.29381 20.7062 2.63012 19.8904 2.63012C19.6099 2.63012 19.3474 2.7086 19.1237 2.84471L16.3822 0.103174C16.2446 -0.0343913 16.0216 -0.0343913 15.8841 0.103174C15.7465 0.240739 15.7465 0.463737 15.8841 0.601302L18.6256 3.34284C18.4894 3.56659 18.411 3.82909 18.411 4.10957C18.411 4.17194 18.4153 4.23328 18.4228 4.29363L14.8955 6.76277C14.799 6.6267 14.693 6.49585 14.5762 6.37196C13.9002 5.65506 12.9853 5.26025 12 5.26025C11.0147 5.26025 10.0998 5.65506 9.42383 6.37196C9.30702 6.49585 9.20097 6.62666 9.10455 6.76277L5.5772 4.29363C5.58471 4.23328 5.58904 4.17194 5.58904 4.10957C5.58904 3.82909 5.51055 3.56659 5.37444 3.34284L8.11599 0.601302C8.25355 0.463737 8.25355 0.240739 8.11599 0.103174C7.97842 -0.0343913 7.75538 -0.0343913 7.61786 0.103174L4.87631 2.84471C4.65256 2.7086 4.39007 2.63012 4.10958 2.63012C3.29382 2.63012 2.63013 3.29381 2.63013 4.10957C2.63013 4.39006 2.70861 4.65255 2.84472 4.8763L0.103174 7.61784C-0.0343914 7.75541 -0.0343914 7.9784 0.103174 8.11597C0.171934 8.18478 0.26211 8.21915 0.352239 8.21915C0.442368 8.21915 0.532545 8.18478 0.601304 8.11597L3.34285 5.37443C3.37357 5.39312 3.40527 5.41036 3.43739 5.42685C3.45083 5.44775 3.46647 5.46761 3.48474 5.48588L8.36928 10.3704C8.42085 10.422 8.48444 10.4543 8.55104 10.4671L8.80072 14.7114C8.78104 14.7244 8.76235 14.7395 8.74501 14.7568L4.98767 18.5142C4.94963 18.5522 4.92253 18.5969 4.90553 18.6443C4.67553 18.4969 4.40251 18.4109 4.10958 18.4109C3.8291 18.4109 3.5666 18.4894 3.34285 18.6255L0.601304 15.884C0.463738 15.7464 0.240693 15.7464 0.103174 15.884C-0.0343914 16.0215 -0.0343914 16.2446 0.103174 16.3821L2.84472 19.1236C2.70861 19.3474 2.63013 19.6099 2.63013 19.8904C2.63013 20.7061 3.29382 21.3698 4.10958 21.3698C4.39007 21.3698 4.65256 21.2914 4.87631 21.1553L7.61786 23.8968C7.68662 23.9656 7.77679 24 7.86692 24C7.95705 24 8.04723 23.9656 8.11599 23.8968C8.25355 23.7592 8.25355 23.5362 8.11599 23.3987L5.44489 20.7276L9.74001 18.4148C10.0389 18.6198 10.3997 18.7397 10.787 18.7397H13.213C13.6003 18.7397 13.9611 18.6198 14.26 18.4148L18.5551 20.7276L15.884 23.3987C15.7464 23.5363 15.7464 23.7593 15.884 23.8968C15.9528 23.9656 16.0429 24 16.1331 24C16.2232 24 16.3134 23.9656 16.3821 23.8968L19.1237 21.1553C19.3474 21.2914 19.6099 21.3698 19.8904 21.3698C20.7062 21.3698 21.3699 20.7061 21.3699 19.8904C21.3699 19.6099 21.2914 19.3474 21.1553 19.1237L23.8968 16.3821C24.0344 16.2446 24.0344 16.0215 23.8968 15.884C23.7593 15.7465 23.5363 15.7465 23.3987 15.884Z" fill="white"/>
</svg>
