<svg width="28" height="28" viewBox="0 0 28 28" fill="none" xmlns="http://www.w3.org/2000/svg">
<path d="M7.91467 24.5C6.67956 24.5 5.635 24.0652 4.781 23.1957C3.927 22.3261 3.5 21.2761 3.5 20.0457C3.5 18.8152 3.92739 17.773 4.78217 16.919C5.63695 16.065 6.68072 15.638 7.9135 15.638C8.38639 15.638 8.83672 15.7053 9.2645 15.8398C9.69306 15.9744 10.0823 16.1665 10.4323 16.4162C11.0491 15.6283 11.3707 14.8097 11.3972 13.9603C11.4244 13.1102 11.1417 12.2986 10.549 11.5255C10.1796 11.7946 9.77589 12.0038 9.338 12.1532C8.90011 12.3025 8.435 12.3772 7.94267 12.3772C6.70833 12.3772 5.6595 11.9455 4.79617 11.0822C3.93283 10.2188 3.50078 9.17 3.5 7.93567C3.49922 6.70133 3.93089 5.65367 4.795 4.79267C5.65911 3.93167 6.70872 3.50078 7.94383 3.5C9.17895 3.49922 10.2278 3.92895 11.0903 4.78917C11.9529 5.64939 12.3846 6.69822 12.3853 7.93567C12.3853 8.428 12.306 8.89311 12.1473 9.331C11.9879 9.76889 11.7736 10.1726 11.5045 10.542C12.2776 11.1347 13.0927 11.4186 13.9498 11.3937C14.8069 11.3688 15.6294 11.0557 16.4173 10.4545C16.1677 10.1045 15.9717 9.71561 15.8293 9.28783C15.687 8.86006 15.6162 8.40933 15.617 7.93567C15.617 6.70289 16.0459 5.65911 16.9038 4.80433C17.7617 3.94956 18.8094 3.52217 20.0468 3.52217C21.2843 3.52217 22.3362 3.94995 23.2027 4.8055C24.0691 5.66106 24.5016 6.70445 24.5 7.93567C24.4984 9.16689 24.0641 10.2165 23.1968 11.0845C22.3296 11.9525 21.2812 12.3857 20.0515 12.3842C19.5413 12.3842 19.0579 12.3033 18.6013 12.1415C18.1456 11.9797 17.7306 11.7472 17.3565 11.4438C16.7444 12.2364 16.4519 13.0733 16.4792 13.9545C16.5064 14.8357 16.8354 15.6831 17.4662 16.4967C17.8356 16.2268 18.2358 16.016 18.6667 15.8643C19.0976 15.7127 19.5588 15.6368 20.0503 15.6368C21.2792 15.6368 22.3281 16.0642 23.1968 16.919C24.0656 17.7753 24.5 18.8199 24.5 20.0527C24.5 21.2854 24.0652 22.3351 23.1957 23.2015C22.3261 24.0679 21.2761 24.5008 20.0457 24.5C18.8152 24.4992 17.7691 24.0648 16.9073 23.1968C16.0456 22.3288 15.6151 21.2804 15.6158 20.0515C15.6158 19.5592 15.6917 19.0937 15.8433 18.655C15.995 18.2171 16.2054 17.8134 16.4745 17.444C15.6625 16.8124 14.8233 16.4858 13.9568 16.464C13.0904 16.4422 12.2531 16.7448 11.445 17.3717C11.7483 17.7458 11.9809 18.158 12.1427 18.6083C12.3044 19.0587 12.3853 19.5397 12.3853 20.0515C12.3853 21.2804 11.949 22.3288 11.0763 23.1968C10.2037 24.0648 9.14978 24.4992 7.91467 24.5ZM20.0515 11.2175C20.9615 11.2175 21.7358 10.8986 22.3743 10.2608C23.0137 9.62228 23.3333 8.84839 23.3333 7.93917C23.3333 7.03072 23.0144 6.26189 22.3767 5.63267C21.7381 5.00345 20.9642 4.68883 20.055 4.68883C19.1458 4.68883 18.3731 5.00345 17.7368 5.63267C17.1006 6.26189 16.7821 7.02956 16.7813 7.93567C16.7813 8.27011 16.8261 8.58745 16.9155 8.88767C17.0049 9.18789 17.136 9.4605 17.3087 9.7055L19.8753 7.16217L20.657 7.94267L18.0997 10.5513C18.3641 10.7683 18.6636 10.9336 18.998 11.0472C19.3324 11.1607 19.6836 11.2179 20.0515 11.2187M7.9415 11.2117C8.28606 11.2117 8.61311 11.1549 8.92267 11.0413C9.23222 10.927 9.51728 10.7808 9.77783 10.6027L7.11667 7.94383L7.94267 7.14L10.6097 9.8C10.8026 9.54022 10.9523 9.24933 11.0588 8.92733C11.1654 8.60533 11.2187 8.27478 11.2187 7.93567C11.2187 7.02956 10.899 6.25722 10.2597 5.61867C9.62111 4.97933 8.84878 4.65967 7.94267 4.65967C7.03656 4.65967 6.26383 4.97895 5.6245 5.6175C4.98595 6.25761 4.66667 7.03072 4.66667 7.93683C4.66667 8.84295 4.98595 9.61567 5.6245 10.255C6.26306 10.8928 7.03461 11.2117 7.9415 11.2117ZM20.055 23.3333C20.9634 23.3333 21.7373 23.0144 22.3767 22.3767C23.016 21.7389 23.3349 20.965 23.3333 20.055C23.3318 19.145 23.0121 18.3758 22.3743 17.7473C21.7366 17.1189 20.9619 16.8047 20.0503 16.8047C19.7066 16.8047 19.3799 16.8568 19.0703 16.961C18.7608 17.0644 18.4757 17.2052 18.2152 17.3833L20.9125 20.0807L20.0573 20.8833L17.3903 18.2163C17.2122 18.4761 17.0664 18.7608 16.9528 19.0703C16.8393 19.3799 16.7825 19.7066 16.7825 20.0503C16.7825 20.9603 17.1006 21.735 17.7368 22.3743C18.3731 23.0137 19.1458 23.3333 20.055 23.3333ZM7.92167 23.3333C8.83556 23.3333 9.61333 23.0137 10.255 22.3743C10.8959 21.735 11.2163 20.9603 11.2163 20.0503C11.2163 19.6871 11.1596 19.3398 11.046 19.0085C10.9324 18.6772 10.7672 18.3793 10.5502 18.1148L7.7385 20.8833L6.9055 20.0807L9.65417 17.332C9.40917 17.1586 9.14161 17.0271 8.8515 16.9377C8.56139 16.8482 8.24872 16.8039 7.9135 16.8047C7.00661 16.8047 6.23895 17.1193 5.6105 17.7485C4.98128 18.3762 4.66667 19.145 4.66667 20.055C4.66667 20.9634 4.98128 21.7373 5.6105 22.3767C6.23895 23.0144 7.01011 23.3333 7.924 23.3333M13.9988 14.875C14.2399 14.875 14.4426 14.7933 14.6067 14.63C14.77 14.4667 14.8517 14.2644 14.8517 14.0233C14.8517 13.7822 14.77 13.5796 14.6067 13.4155C14.4441 13.2522 14.2419 13.1705 14 13.1705C13.7581 13.1705 13.5559 13.2522 13.3933 13.4155C13.2308 13.5788 13.1491 13.7811 13.1483 14.0222C13.1476 14.2633 13.2292 14.4655 13.3933 14.6288C13.5559 14.7929 13.7581 14.875 14 14.875" fill="white"/>
</svg>
