<svg width="179" height="197" viewBox="0 0 179 197" fill="none" xmlns="http://www.w3.org/2000/svg">
<circle cx="88.7773" cy="30.5" r="30" fill="#D1FFD3" fill-opacity="0.4"/>
<circle cx="88.7773" cy="166.652" r="30" fill="#9AE2FF" fill-opacity="0.4"/>
<circle cx="148.777" cy="132.258" r="30" fill="#D1FFD3" fill-opacity="0.4"/>
<circle cx="148.777" cy="64.0391" r="30" fill="#9AE2FF" fill-opacity="0.4"/>
<circle cx="30.2227" cy="64.0391" r="30" fill="#9AE2FF" fill-opacity="0.4"/>
<circle cx="30.2227" cy="132.258" r="30" fill="#D1FFD3" fill-opacity="0.4"/>
<path d="M88.7773 23.1953C93.7479 23.1953 97.7773 27.2247 97.7773 32.1953C97.7773 35.9244 95.5093 39.1237 92.2773 40.4893V86.6387H101.65V86.8447L138.176 66.1826C138.168 66.0283 138.164 65.873 138.164 65.7168C138.164 60.7462 142.193 56.7168 147.164 56.7168C152.135 56.7168 156.164 60.7462 156.164 65.7168C156.164 70.6874 152.135 74.7168 147.164 74.7168C144.895 74.7168 142.824 73.8755 141.241 72.4902L101.651 94.8877L101.65 94.8857V101.931L139.971 127.142C141.613 124.961 144.224 123.551 147.164 123.551C152.135 123.551 156.164 127.58 156.164 132.551C156.164 137.521 152.135 141.551 147.164 141.551C142.851 141.551 139.249 138.517 138.37 134.468L101.65 110.31V111.639H92.2773V157.863C95.5228 159.223 97.8027 162.429 97.8027 166.168C97.8027 171.139 93.7733 175.168 88.8027 175.168C83.8322 175.168 79.8027 171.139 79.8027 166.168C79.8027 162.449 82.0589 159.256 85.2773 157.885V111.639H76.6504V111.441L39.3672 133.156C39.0557 137.844 35.1576 141.551 30.3906 141.551C25.4201 141.551 21.3906 137.521 21.3906 132.551C21.3906 127.58 25.4201 123.551 30.3906 123.551C33.0006 123.551 35.3502 124.663 36.9941 126.438L76.6504 103.341V96.3359L36.0703 71.3525C34.5211 72.6148 32.5448 73.373 30.3906 73.373C25.4201 73.373 21.3906 69.3436 21.3906 64.373C21.3906 59.4025 25.4201 55.373 30.3906 55.373C35.3612 55.373 39.3906 59.4025 39.3906 64.373C39.3906 64.6364 39.3757 64.8967 39.3535 65.1543L76.6504 88.1152V86.6387H85.2773V40.4893C82.0454 39.1237 79.7773 35.9244 79.7773 32.1953C79.7773 27.2247 83.8068 23.1953 88.7773 23.1953Z" fill="#D9D9D9"/>
</svg>
