<svg width="27" height="26" viewBox="0 0 27 26" fill="none" xmlns="http://www.w3.org/2000/svg">
<g clip-path="url(#clip0_192_37231)">
<path d="M14.3129 0.000128548C14.1816 0.0124071 14.054 0.0504313 13.9374 0.11203C13.8208 0.173629 13.7174 0.257595 13.6332 0.359136C13.549 0.460677 13.4857 0.577803 13.4468 0.703828C13.4079 0.829852 13.3942 0.962307 13.4064 1.09363C13.4312 1.35884 13.5604 1.60335 13.7655 1.77335C13.867 1.85753 13.9841 1.92088 14.1101 1.95979C14.2362 1.9987 14.3686 2.01241 14.4999 2.00013C18.9419 2.00013 22.4999 5.51313 22.4999 10.0001C22.4999 10.2653 22.6053 10.5197 22.7928 10.7072C22.9804 10.8948 23.2347 11.0001 23.4999 11.0001C23.7652 11.0001 24.0195 10.8948 24.2071 10.7072C24.3946 10.5197 24.4999 10.2653 24.4999 10.0001C24.4999 4.44513 20.0079 0.000128548 14.4999 0.000128548C14.4686 -0.00134493 14.4373 -0.00134493 14.4059 0.000128548C14.3746 -0.00134493 14.3443 -0.00134493 14.3129 0.000128548ZM14.3129 4.00013C14.0477 4.02493 13.8032 4.15407 13.6332 4.35914C13.4632 4.56421 13.3816 4.82841 13.4064 5.09363C13.4312 5.35885 13.5604 5.60335 13.7655 5.77335C13.9705 5.94335 14.2347 6.02493 14.4999 6.00013C16.0939 6.00013 17.0299 6.34113 17.5939 6.90613C18.1579 7.47113 18.4999 8.41113 18.4999 10.0001C18.4999 10.2653 18.6053 10.5197 18.7928 10.7072C18.9804 10.8948 19.2347 11.0001 19.4999 11.0001C19.7652 11.0001 20.0195 10.8948 20.2071 10.7072C20.3946 10.5197 20.4999 10.2653 20.4999 10.0001C20.4999 8.12013 20.0659 6.56813 18.9999 5.50013C17.9339 4.43213 16.3879 4.00013 14.4999 4.00013C14.4686 3.99866 14.4373 3.99866 14.4059 4.00013C14.3746 3.99866 14.3443 3.99866 14.3129 4.00013ZM7.21794 5.12513C6.30794 5.12013 5.53894 5.36613 4.99894 5.90613C3.13694 7.76813 0.355945 13.3871 5.74894 18.7811C10.6819 23.7151 16.7609 21.3931 18.6239 19.5311C20.1089 18.0461 19.4319 14.8641 17.1859 11.7191C16.7639 12.0591 16.2649 13.1991 16.4989 13.5941C17.6099 15.4681 17.9299 17.1321 17.1549 17.9061C15.9619 19.0991 12.6279 17.7231 9.71795 14.8131C6.80694 11.9001 5.42994 8.57013 6.62494 7.37513C7.35494 6.64413 8.87594 6.87513 10.6249 7.84413C11.0339 8.07013 12.1969 7.58413 12.5309 7.15613C10.6209 5.85313 8.73294 5.13413 7.21794 5.12513ZM14.4999 8.00013C13.6129 8.00013 12.8559 8.57513 12.5939 9.37513L9.90594 9.68813C9.78617 9.68276 9.66666 9.70347 9.55568 9.74883C9.44469 9.79418 9.34488 9.8631 9.26314 9.95081C9.18141 10.0385 9.11969 10.1429 9.08227 10.2568C9.04484 10.3707 9.0326 10.4914 9.04639 10.6105C9.06018 10.7296 9.09966 10.8443 9.16212 10.9466C9.22458 11.049 9.30852 11.1365 9.40813 11.2033C9.50775 11.27 9.62066 11.3143 9.73907 11.3331C9.85748 11.3519 9.97856 11.3447 10.0939 11.3121L12.7809 11.0321C12.9509 11.3161 13.1839 11.5491 13.4689 11.7191L13.1879 14.4061C13.1554 14.5215 13.1482 14.6426 13.167 14.761C13.1858 14.8794 13.2301 14.9923 13.2968 15.0919C13.3635 15.1916 13.4511 15.2755 13.5534 15.338C13.6558 15.4004 13.7705 15.4399 13.8896 15.4537C14.0087 15.4675 14.1293 15.4552 14.2432 15.4178C14.3571 15.3804 14.4616 15.3187 14.5493 15.2369C14.637 15.1552 14.7059 15.0554 14.7512 14.9444C14.7966 14.8334 14.8173 14.7139 14.8119 14.5941L15.1249 11.9061C15.5255 11.7735 15.8741 11.5179 16.121 11.1757C16.3679 10.8335 16.5005 10.4221 16.4999 10.0001C16.4999 9.4697 16.2892 8.96099 15.9142 8.58592C15.5391 8.21084 15.0304 8.00013 14.4999 8.00013ZM7.56194 22.0631C5.86894 22.8381 4.71994 24.3101 4.71994 26.0001H16.4069C16.4069 24.9561 15.6489 23.7371 14.7199 23.2191C14.0839 23.3341 13.4029 23.4061 12.7199 23.4061C10.9142 23.411 9.13787 22.9483 7.56394 22.0631H7.56194Z" fill="white"/>
</g>
<defs>
<clipPath id="clip0_192_37231">
<rect width="26" height="26" fill="white" transform="translate(0.5)"/>
</clipPath>
</defs>
</svg>
