<svg width="445" height="316" viewBox="0 0 445 316" fill="none" xmlns="http://www.w3.org/2000/svg">
<path d="M30.6807 313.886L125.916 296.468C131.116 295.517 135.948 293.141 139.875 289.603C145.114 284.884 151.915 282.273 158.965 282.273H286.026C292.385 282.273 298.463 284.886 302.838 289.5C306.235 293.082 310.688 295.485 315.546 296.36L413.117 313.92C419.818 315.126 426.727 313.723 432.426 309.998C439.959 305.074 444.5 296.681 444.5 287.681V54.734C444.5 50.0409 442.694 45.5279 439.455 42.1309C436.008 38.515 431.23 36.4688 426.235 36.4688H320.399C314.87 36.4688 309.515 38.4068 305.267 41.9458C301.018 45.4848 295.664 47.4228 290.134 47.4228H153.799C148.474 47.4228 143.334 45.4747 139.347 41.9458C135.36 38.4169 130.219 36.4688 124.895 36.4688H22.4908C17.7552 36.4688 13.1462 37.9974 9.3492 40.8274C3.78071 44.9777 0.5 51.5145 0.5 58.4595V288.724C0.5 297.106 4.60672 304.957 11.4922 309.736C17.0819 313.617 23.9872 315.11 30.6807 313.886Z" fill="white"/>
<ellipse cx="101.385" cy="172.394" rx="62.8633" ry="60.1885" fill="#3D3B3B" fill-opacity="0.85"/>
<ellipse cx="101.387" cy="172.393" rx="38.6094" ry="36.9666" fill="white"/>
<path d="M53.3965 168.31C53.5347 156.54 58.3416 145.307 66.7601 137.081C75.1786 128.855 86.5195 124.308 98.2891 124.442" stroke="white" stroke-width="4.62323" stroke-miterlimit="10" stroke-linecap="round"/>
<ellipse cx="343.619" cy="172.394" rx="62.8633" ry="60.1885" fill="#3D3B3B" fill-opacity="0.85"/>
<ellipse cx="343.617" cy="172.393" rx="38.6094" ry="36.9666" fill="white"/>
<path d="M347.234 123.938C359.004 124.077 370.237 128.884 378.463 137.302C386.689 145.721 391.236 157.061 391.102 168.831" stroke="white" stroke-width="4.62323" stroke-miterlimit="10" stroke-linecap="round"/>
</svg>
