<svg width="28" height="28" viewBox="0 0 28 28" fill="none" xmlns="http://www.w3.org/2000/svg">
<g clip-path="url(#clip0_1057_15082)">
<path d="M14 26.5C17.3152 26.5 20.4946 25.183 22.8388 22.8388C25.183 20.4946 26.5 17.3152 26.5 14C26.5 10.6848 25.183 7.50537 22.8388 5.16117C20.4946 2.81696 17.3152 1.5 14 1.5C10.6848 1.5 7.50537 2.81696 5.16117 5.16117C2.81696 7.50537 1.5 10.6848 1.5 14C1.5 17.3152 2.81696 20.4946 5.16117 22.8388C7.50537 25.183 10.6848 26.5 14 26.5Z" stroke="white" stroke-width="2" stroke-linecap="round" stroke-linejoin="round"/>
<path d="M8.44531 19.5549L11.0006 11.8746C11.0706 11.6698 11.1873 11.4842 11.3414 11.3323C11.4956 11.1805 11.683 11.0666 11.8887 10.9996L19.5558 8.44434L17.0006 16.1246C16.9319 16.3279 16.8172 16.5127 16.6654 16.6645C16.5137 16.8162 16.3289 16.9309 16.1256 16.9996L8.44531 19.5549Z" stroke="white" stroke-width="2" stroke-linecap="round" stroke-linejoin="round"/>
</g>
<defs>
<clipPath id="clip0_1057_15082">
<rect width="28" height="28" fill="white"/>
</clipPath>
</defs>
</svg>
