<svg width="34" height="34" viewBox="0 0 34 34" fill="none" xmlns="http://www.w3.org/2000/svg">
<path fill-rule="evenodd" clip-rule="evenodd" d="M7.65039 10.6069C7.65039 9.44348 8.5802 8.5 9.72817 8.5H24.2726C25.4206 8.5 26.3504 9.44348 26.3504 10.6069V20.0874C26.3494 20.3653 26.2949 20.6403 26.1899 20.8966C26.085 21.153 25.9316 21.3857 25.7386 21.5814C25.5456 21.7771 25.3168 21.9319 25.0653 22.0371C24.8137 22.1422 24.5444 22.1956 24.2726 22.1942H17.4159L14.4375 25.0629C13.4453 26.0181 11.8059 25.3052 11.8059 23.9155V22.1942H9.72817C8.5802 22.1942 7.65039 21.2508 7.65039 20.0874V10.6069ZM13.5783 14.6539C13.4816 14.5554 13.3669 14.4773 13.2408 14.4241C13.1146 14.3709 12.9795 14.3437 12.843 14.3439C12.7065 14.3442 12.5715 14.3719 12.4455 14.4255C12.3195 14.4792 12.2051 14.5577 12.1088 14.6565C12.0125 14.7554 11.9361 14.8727 11.8841 15.0017C11.8321 15.1307 11.8055 15.2689 11.8057 15.4085C11.806 15.5481 11.8331 15.6862 11.8855 15.815C11.938 15.9439 12.0147 16.0609 12.1114 16.1594C12.208 16.2579 12.3227 16.336 12.4489 16.3891C12.575 16.4423 12.7102 16.4696 12.8467 16.4693C12.9831 16.4691 13.1182 16.4413 13.2442 16.3877C13.3702 16.3341 13.4846 16.2556 13.5809 16.1567C13.6772 16.0579 13.7535 15.9406 13.8055 15.8116C13.8575 15.6825 13.8842 15.5443 13.8839 15.4047C13.8837 15.2652 13.8566 15.127 13.8041 14.9982C13.7517 14.8694 13.6749 14.7524 13.5783 14.6539ZM16.2638 14.656C16.4088 14.507 16.5937 14.4054 16.7951 14.364C16.9966 14.3225 17.2055 14.3431 17.3955 14.4231C17.5856 14.5031 17.7481 14.6389 17.8626 14.8134C17.9772 14.9879 18.0385 15.1932 18.039 15.4033C18.0394 15.6135 17.9789 15.819 17.8651 15.994C17.7513 16.169 17.5893 16.3055 17.3996 16.3863C17.2099 16.4671 17.0011 16.4886 16.7995 16.448C16.5978 16.4074 16.4125 16.3066 16.2669 16.1583C16.0718 15.9595 15.9618 15.6895 15.9612 15.4078C15.9606 15.1261 16.0695 14.8556 16.2638 14.656ZM21.8894 14.6539C21.6942 14.4549 21.4297 14.3434 21.1541 14.3439C20.8785 14.3444 20.6144 14.4569 20.4199 14.6565C20.2254 14.8562 20.1164 15.1267 20.1168 15.4085C20.1173 15.6903 20.2273 15.9604 20.4225 16.1594C20.5191 16.2579 20.6338 16.336 20.76 16.3891C20.8862 16.4423 21.0213 16.4696 21.1578 16.4693C21.2942 16.4691 21.4293 16.4413 21.5553 16.3877C21.6813 16.3341 21.7957 16.2556 21.892 16.1567C21.9883 16.0579 22.0647 15.9406 22.1166 15.8116C22.1686 15.6825 22.1953 15.5443 22.195 15.4047C22.1948 15.2652 22.1677 15.127 22.1152 14.9982C22.0628 14.8694 21.9861 14.7524 21.8894 14.6539Z" fill="white"/>
</svg>
