<svg width="28" height="28" viewBox="0 0 28 28" fill="none" xmlns="http://www.w3.org/2000/svg">
<path fill-rule="evenodd" clip-rule="evenodd" d="M16.8 2.2207L11.2 7.8207V25.7799L16.8 20.1799V2.2207ZM5.18979 4.6105C4.994 4.41477 4.74457 4.28148 4.47303 4.22749C4.2015 4.17349 3.92005 4.20122 3.66427 4.30715C3.40849 4.41309 3.18986 4.59249 3.03603 4.82266C2.88219 5.05284 2.80005 5.32345 2.79999 5.6003V19.6003C2.80007 19.9716 2.94762 20.3276 3.21019 20.5901L8.39999 25.7799V7.8207L5.18979 4.6105ZM24.7898 7.4105L19.6 2.2207V20.1799L22.8102 23.3901C23.006 23.5858 23.2554 23.7191 23.5269 23.7731C23.7985 23.8271 24.0799 23.7994 24.3357 23.6935C24.5915 23.5875 24.8101 23.4081 24.964 23.1779C25.1178 22.9478 25.1999 22.6772 25.2 22.4003V8.4003C25.1999 8.02903 25.0524 7.67299 24.7898 7.4105V7.4105Z" fill="white"/>
</svg>
