<svg width="20" height="24" viewBox="0 0 20 24" fill="none" xmlns="http://www.w3.org/2000/svg">
<path d="M19.1284 10.3912L6.99336 22.869C6.65612 23.2147 6.09687 22.8142 6.31607 22.3843L10.6356 13.8605C10.6683 13.7962 10.6839 13.7245 10.681 13.6524C10.6781 13.5803 10.6567 13.5102 10.6189 13.4487C10.5811 13.3872 10.5282 13.3364 10.4652 13.3013C10.4021 13.2661 10.3311 13.2477 10.259 13.2479H1.17316C1.09018 13.2478 1.00906 13.2232 0.939967 13.1773C0.870879 13.1313 0.816897 13.066 0.784787 12.9894C0.752678 12.9129 0.743869 12.8286 0.759464 12.7471C0.77506 12.6656 0.814366 12.5905 0.872457 12.5312L12.1278 1.12831C12.4538 0.798096 12.9962 1.16063 12.815 1.5892L9.5873 9.19818C9.55997 9.26269 9.54915 9.33299 9.55582 9.40273C9.56249 9.47247 9.58643 9.53945 9.62548 9.59761C9.66454 9.65578 9.71747 9.70329 9.7795 9.73586C9.84153 9.76842 9.9107 9.78502 9.98075 9.78414L18.8207 9.67453C18.9041 9.67319 18.986 9.69664 19.0561 9.7419C19.1262 9.78716 19.1813 9.8522 19.2144 9.92878C19.2475 10.0054 19.2571 10.09 19.2421 10.1721C19.227 10.2542 19.1879 10.3299 19.1298 10.3898L19.1284 10.3912Z" stroke="white" stroke-width="1.5"/>
</svg>
