<svg width="17" height="17" viewBox="0 0 17 17" fill="none" xmlns="http://www.w3.org/2000/svg">
<g clip-path="url(#clip0_1712_44356)">
<path fill-rule="evenodd" clip-rule="evenodd" d="M7.72544 0.5C7.85805 0.5 7.98523 0.552678 8.079 0.646447C8.17276 0.740215 8.22544 0.867392 8.22544 1V7C8.22544 7.13261 8.17276 7.25979 8.079 7.35355C7.98523 7.44732 7.85805 7.5 7.72544 7.5C7.59283 7.5 7.46566 7.44732 7.37189 7.35355C7.27812 7.25979 7.22544 7.13261 7.22544 7V1C7.22544 0.867392 7.27812 0.740215 7.37189 0.646447C7.46566 0.552678 7.59283 0.5 7.72544 0.5ZM5.68544 2.33C5.7128 2.38975 5.72811 2.4543 5.7305 2.51996C5.73288 2.58563 5.72231 2.65112 5.69937 2.7127C5.67643 2.77427 5.64157 2.83072 5.5968 2.87882C5.55203 2.92692 5.49822 2.96572 5.43844 2.993C4.29779 3.51568 3.3699 4.41232 2.80849 5.53442C2.24708 6.65652 2.08583 7.93673 2.35144 9.163C2.61669 10.3888 3.29441 11.4866 4.27144 12.273C4.87844 12.7609 5.58208 13.1144 6.33585 13.3101C7.08962 13.5058 7.87634 13.5394 8.64403 13.4085C9.41171 13.2775 10.1429 12.9852 10.7892 12.5507C11.4355 12.1162 11.9822 11.5495 12.3932 10.888C12.8042 10.2265 13.0701 9.48536 13.1734 8.71347C13.2766 7.94158 13.2149 7.15656 12.9922 6.41031C12.7696 5.66405 12.391 4.97356 11.8817 4.38447C11.3723 3.79538 10.7437 3.3211 10.0374 2.993C9.91704 2.9373 9.82368 2.83606 9.77792 2.71153C9.73216 2.58701 9.73775 2.44941 9.79344 2.329C9.84914 2.20859 9.95039 2.11524 10.0749 2.06948C10.1994 2.02372 10.337 2.0293 10.4574 2.085C11.8047 2.70412 12.8989 3.76655 13.5574 5.095C14.2158 6.42317 14.4008 7.9364 14.0816 9.38403C13.7624 10.8317 12.9583 12.1268 11.8024 13.055C10.6457 13.9812 9.20754 14.485 7.72568 14.4831C6.24383 14.4813 4.80694 13.974 3.65244 13.045C2.50104 12.1106 1.70075 10.8133 1.38244 9.365C1.06761 7.91528 1.25816 6.40148 1.92244 5.075C2.58334 3.74716 3.68168 2.68767 5.03244 2.075C5.09219 2.04765 5.15674 2.03234 5.22241 2.02995C5.28807 2.02756 5.35356 2.03814 5.41514 2.06108C5.47672 2.08402 5.53316 2.11887 5.58126 2.16364C5.62936 2.20841 5.66816 2.26222 5.69544 2.322L5.68544 2.33Z" fill="white"/>
</g>
<defs>
<clipPath id="clip0_1712_44356">
<rect width="16" height="16" fill="white" transform="translate(0.226562 0.5)"/>
</clipPath>
</defs>
</svg>
