<svg width="28" height="28" viewBox="0 0 28 28" fill="none" xmlns="http://www.w3.org/2000/svg">
<path d="M25.8891 20.5625L16.275 3.93749C16.0448 3.53765 15.7134 3.20553 15.314 2.9746C14.9146 2.74366 14.4614 2.62207 14 2.62207C13.5386 2.62207 13.0854 2.74366 12.686 2.9746C12.2866 3.20553 11.9552 3.53765 11.725 3.93749L2.11094 20.5625C1.87739 20.9603 1.75327 21.4128 1.75119 21.8741C1.7491 22.3354 1.86913 22.7891 2.09908 23.189C2.32902 23.5889 2.6607 23.9208 3.06043 24.1511C3.46016 24.3813 3.9137 24.5017 4.375 24.5H23.625C24.0863 24.5017 24.5398 24.3813 24.9396 24.1511C25.3393 23.9208 25.671 23.5889 25.9009 23.189C26.1309 22.7891 26.2509 22.3354 26.2488 21.8741C26.2467 21.4128 26.1226 20.9603 25.8891 20.5625ZM13.125 11.375C13.125 11.1429 13.2172 10.9204 13.3813 10.7563C13.5454 10.5922 13.7679 10.5 14 10.5C14.2321 10.5 14.4546 10.5922 14.6187 10.7563C14.7828 10.9204 14.875 11.1429 14.875 11.375V15.75C14.875 15.9821 14.7828 16.2046 14.6187 16.3687C14.4546 16.5328 14.2321 16.625 14 16.625C13.7679 16.625 13.5454 16.5328 13.3813 16.3687C13.2172 16.2046 13.125 15.9821 13.125 15.75V11.375ZM14 21C13.7404 21 13.4867 20.923 13.2708 20.7788C13.055 20.6346 12.8868 20.4296 12.7874 20.1898C12.6881 19.9499 12.6621 19.686 12.7127 19.4314C12.7634 19.1768 12.8884 18.943 13.0719 18.7594C13.2555 18.5759 13.4893 18.4509 13.7439 18.4002C13.9985 18.3496 14.2624 18.3756 14.5023 18.4749C14.7421 18.5742 14.9471 18.7425 15.0913 18.9583C15.2355 19.1741 15.3125 19.4279 15.3125 19.6875C15.3125 20.0356 15.1742 20.3694 14.9281 20.6156C14.6819 20.8617 14.3481 21 14 21Z" fill="#F5B331"/>
</svg>
