<svg width="160" height="176" viewBox="0 0 160 176" fill="none" xmlns="http://www.w3.org/2000/svg">
<circle cx="130" cy="146" r="30" fill="#9AE2FF" fill-opacity="0.4"/>
<circle cx="130" cy="30.6133" r="30" fill="#9AE2FF" fill-opacity="0.4"/>
<circle cx="30" cy="45" r="30" fill="#9AE2FF" fill-opacity="0.4"/>
<circle cx="130" cy="45" r="30" fill="#D1FFD3" fill-opacity="0.4"/>
<circle cx="30" cy="30.6133" r="30" fill="#D1FFD3" fill-opacity="0.4"/>
<circle cx="130" cy="132.652" r="30" fill="#D1FFD3" fill-opacity="0.4"/>
<path d="M60 146C60 162.569 46.5685 176 30 176C13.4315 176 0 162.569 0 146C0 129.431 13.4315 116 30 116C46.5685 116 60 129.431 60 146Z" fill="#D1FFD3" fill-opacity="0.4"/>
<path d="M128 36C132.971 36 137 40.0294 137 45C137 49.9706 132.971 54 128 54C127.212 54 126.449 53.898 125.721 53.708L92 86.998V101.979L125.479 135.359C126.279 135.126 127.125 135 128 135C132.971 135 137 139.029 137 144C137 148.971 132.971 153 128 153C123.029 153 119 148.971 119 144C119 142.488 119.374 141.064 120.032 139.813L88.125 108H70.7275L38.8027 139.517C39.563 140.837 40 142.367 40 144C40 148.971 35.9706 153 31 153C26.0294 153 22 148.971 22 144C22 139.029 26.0294 135 31 135C31.7412 135 32.4613 135.091 33.1504 135.26L67 101.843V86.9365L33.5859 53.6211C32.7668 53.8665 31.899 54 31 54C26.0294 54 22 49.9706 22 45C22 40.0294 26.0294 36 31 36C35.9706 36 40 40.0294 40 45C40 46.489 39.6353 47.8919 38.9951 49.1289L72.9658 83H86.0869L120.139 49.3818C119.414 48.0849 119 46.5911 119 45C119 40.0294 123.029 36 128 36Z" fill="#D9D9D9"/>
<circle cx="30" cy="132.652" r="30" fill="#9AE2FF" fill-opacity="0.4"/>
</svg>
