<svg width="89" height="61" viewBox="0 0 89 61" fill="none" xmlns="http://www.w3.org/2000/svg">
<g filter="url(#filter0_ddd_1712_49656)">
<rect x="15.5977" y="14.2422" width="57.4756" height="30.2665" rx="4.31067" fill="#3D3B3B"/>
</g>
<g clip-path="url(#clip0_1712_49656)">
<g filter="url(#filter1_ddd_1712_49656)">
<rect x="15.5977" y="12.1797" width="57.4756" height="30.2665" fill="#474747"/>
<rect x="15.5977" y="12.1797" width="57.4756" height="30.2665" fill="url(#paint0_linear_1712_49656)" style="mix-blend-mode:overlay"/>
</g>
<rect opacity="0.5" x="15.5977" y="27.5156" width="57.4756" height="14.9315" fill="#474747"/>
<g style="mix-blend-mode:overlay" opacity="0.7">
<ellipse cx="44.3362" cy="39.8244" rx="26.8904" ry="12.3084" transform="rotate(-180 44.3362 39.8244)" fill="url(#paint1_radial_1712_49656)"/>
</g>
<g style="mix-blend-mode:overlay" opacity="0.7">
<ellipse cx="44.3504" cy="14.2435" rx="26.7589" ry="4.81512" transform="rotate(-180 44.3504 14.2435)" fill="url(#paint2_radial_1712_49656)"/>
</g>
<g style="mix-blend-mode:overlay">
<rect x="18.9219" y="12.1797" width="50.5262" height="0.687876" fill="url(#paint3_linear_1712_49656)"/>
</g>
<g style="mix-blend-mode:overlay" opacity="0.5">
<rect x="18.9219" y="41.7578" width="50.5262" height="0.687876" fill="url(#paint4_linear_1712_49656)"/>
</g>
<path d="M40.3616 31.7719C39.6182 31.7719 38.9323 31.5994 38.3039 31.2546C37.6832 30.9021 37.1889 30.4154 36.8211 29.7947C36.4609 29.1663 36.2808 28.4613 36.2808 27.6796C36.2808 26.8979 36.4609 26.1967 36.8211 25.576C37.1889 24.9553 37.6832 24.4725 38.3039 24.1276C38.9323 23.7751 39.6182 23.5988 40.3616 23.5988C41.1126 23.5988 41.7984 23.7751 42.4192 24.1276C43.0476 24.4725 43.5419 24.9553 43.902 25.576C44.2622 26.1967 44.4423 26.8979 44.4423 27.6796C44.4423 28.4613 44.2622 29.1663 43.902 29.7947C43.5419 30.4154 43.0476 30.9021 42.4192 31.2546C41.7984 31.5994 41.1126 31.7719 40.3616 31.7719ZM40.3616 30.6339C40.8903 30.6339 41.3616 30.5151 41.7755 30.2775C42.1893 30.0323 42.5111 29.6874 42.741 29.2429C42.9786 28.7908 43.0974 28.2697 43.0974 27.6796C43.0974 27.0895 42.9786 26.5723 42.741 26.1278C42.5111 25.6833 42.1893 25.3423 41.7755 25.1047C41.3616 24.8671 40.8903 24.7484 40.3616 24.7484C39.8328 24.7484 39.3615 24.8671 38.9477 25.1047C38.5338 25.3423 38.2081 25.6833 37.9706 26.1278C37.7407 26.5723 37.6257 27.0895 37.6257 27.6796C37.6257 28.2697 37.7407 28.7908 37.9706 29.2429C38.2081 29.6874 38.5338 30.0323 38.9477 30.2775C39.3615 30.5151 39.8328 30.6339 40.3616 30.6339ZM50.1345 31.6914L47.0423 28.1164V31.6914H45.7318V23.7023H47.0423V27.3463L50.146 23.7023H51.7898L48.3182 27.7026L51.8472 31.6914H50.1345Z" fill="#E8E8E8"/>
</g>
<defs>
<filter id="filter0_ddd_1712_49656" x="0.656998" y="0.795595" width="87.3579" height="60.1469" filterUnits="userSpaceOnUse" color-interpolation-filters="sRGB">
<feFlood flood-opacity="0" result="BackgroundImageFix"/>
<feColorMatrix in="SourceAlpha" type="matrix" values="0 0 0 0 0 0 0 0 0 0 0 0 0 0 0 0 0 0 127 0" result="hardAlpha"/>
<feOffset dy="1.49407"/>
<feGaussianBlur stdDeviation="7.47033"/>
<feColorMatrix type="matrix" values="0 0 0 0 0 0 0 0 0 0 0 0 0 0 0 0 0 0 0.2 0"/>
<feBlend mode="normal" in2="BackgroundImageFix" result="effect1_dropShadow_1712_49656"/>
<feColorMatrix in="SourceAlpha" type="matrix" values="0 0 0 0 0 0 0 0 0 0 0 0 0 0 0 0 0 0 127 0" result="hardAlpha"/>
<feOffset dy="5.97626"/>
<feGaussianBlur stdDeviation="3.73516"/>
<feColorMatrix type="matrix" values="0 0 0 0 0 0 0 0 0 0 0 0 0 0 0 0 0 0 0.12 0"/>
<feBlend mode="normal" in2="effect1_dropShadow_1712_49656" result="effect2_dropShadow_1712_49656"/>
<feColorMatrix in="SourceAlpha" type="matrix" values="0 0 0 0 0 0 0 0 0 0 0 0 0 0 0 0 0 0 127 0" result="hardAlpha"/>
<feOffset dy="2.98813"/>
<feGaussianBlur stdDeviation="2.98813"/>
<feColorMatrix type="matrix" values="0 0 0 0 0 0 0 0 0 0 0 0 0 0 0 0 0 0 0.14 0"/>
<feBlend mode="normal" in2="effect2_dropShadow_1712_49656" result="effect3_dropShadow_1712_49656"/>
<feBlend mode="normal" in="SourceGraphic" in2="effect3_dropShadow_1712_49656" result="shape"/>
</filter>
<filter id="filter1_ddd_1712_49656" x="0.656998" y="-1.26691" width="87.3579" height="60.1469" filterUnits="userSpaceOnUse" color-interpolation-filters="sRGB">
<feFlood flood-opacity="0" result="BackgroundImageFix"/>
<feColorMatrix in="SourceAlpha" type="matrix" values="0 0 0 0 0 0 0 0 0 0 0 0 0 0 0 0 0 0 127 0" result="hardAlpha"/>
<feOffset dy="1.49407"/>
<feGaussianBlur stdDeviation="7.47033"/>
<feColorMatrix type="matrix" values="0 0 0 0 0 0 0 0 0 0 0 0 0 0 0 0 0 0 0.2 0"/>
<feBlend mode="normal" in2="BackgroundImageFix" result="effect1_dropShadow_1712_49656"/>
<feColorMatrix in="SourceAlpha" type="matrix" values="0 0 0 0 0 0 0 0 0 0 0 0 0 0 0 0 0 0 127 0" result="hardAlpha"/>
<feOffset dy="5.97626"/>
<feGaussianBlur stdDeviation="3.73516"/>
<feColorMatrix type="matrix" values="0 0 0 0 0 0 0 0 0 0 0 0 0 0 0 0 0 0 0.12 0"/>
<feBlend mode="normal" in2="effect1_dropShadow_1712_49656" result="effect2_dropShadow_1712_49656"/>
<feColorMatrix in="SourceAlpha" type="matrix" values="0 0 0 0 0 0 0 0 0 0 0 0 0 0 0 0 0 0 127 0" result="hardAlpha"/>
<feOffset dy="2.98813"/>
<feGaussianBlur stdDeviation="2.98813"/>
<feColorMatrix type="matrix" values="0 0 0 0 0 0 0 0 0 0 0 0 0 0 0 0 0 0 0.14 0"/>
<feBlend mode="normal" in2="effect2_dropShadow_1712_49656" result="effect3_dropShadow_1712_49656"/>
<feBlend mode="normal" in="SourceGraphic" in2="effect3_dropShadow_1712_49656" result="shape"/>
</filter>
<linearGradient id="paint0_linear_1712_49656" x1="44.3354" y1="12.1797" x2="44.3354" y2="42.4462" gradientUnits="userSpaceOnUse">
<stop stop-color="white"/>
<stop offset="1" stop-color="white" stop-opacity="0"/>
</linearGradient>
<radialGradient id="paint1_radial_1712_49656" cx="0" cy="0" r="1" gradientUnits="userSpaceOnUse" gradientTransform="translate(44.3362 39.8244) rotate(90) scale(12.3084 26.8904)">
<stop stop-color="white"/>
<stop offset="1" stop-color="white" stop-opacity="0"/>
</radialGradient>
<radialGradient id="paint2_radial_1712_49656" cx="0" cy="0" r="1" gradientUnits="userSpaceOnUse" gradientTransform="translate(44.3504 14.2435) rotate(90) scale(4.81512 26.7589)">
<stop stop-color="white"/>
<stop offset="1" stop-color="white" stop-opacity="0"/>
</radialGradient>
<linearGradient id="paint3_linear_1712_49656" x1="69.1667" y1="12.1797" x2="18.7949" y2="12.1797" gradientUnits="userSpaceOnUse">
<stop stop-color="white" stop-opacity="0"/>
<stop offset="0.492063" stop-color="white"/>
<stop offset="1" stop-color="white" stop-opacity="0"/>
</linearGradient>
<linearGradient id="paint4_linear_1712_49656" x1="69.1667" y1="41.7578" x2="18.7949" y2="41.7578" gradientUnits="userSpaceOnUse">
<stop stop-color="white" stop-opacity="0"/>
<stop offset="0.492063" stop-color="white"/>
<stop offset="1" stop-color="white" stop-opacity="0"/>
</linearGradient>
<clipPath id="clip0_1712_49656">
<rect x="15.5977" y="12.1797" width="57.4756" height="30.2665" rx="4.31067" fill="white"/>
</clipPath>
</defs>
</svg>
