<svg width="24" height="26" viewBox="0 0 24 26" fill="none" xmlns="http://www.w3.org/2000/svg">
<path fill-rule="evenodd" clip-rule="evenodd" d="M12 8.625C10.8397 8.625 9.72688 9.08594 8.90641 9.90641C8.08594 10.7269 7.625 11.8397 7.625 13C7.625 14.1603 8.08594 15.2731 8.90641 16.0936C9.72688 16.9141 10.8397 17.375 12 17.375C13.1603 17.375 14.2731 16.9141 15.0936 16.0936C15.9141 15.2731 16.375 14.1603 16.375 13C16.375 11.8397 15.9141 10.7269 15.0936 9.90641C14.2731 9.08594 13.1603 8.625 12 8.625ZM9.375 13C9.375 12.3038 9.65156 11.6361 10.1438 11.1438C10.6361 10.6516 11.3038 10.375 12 10.375C12.6962 10.375 13.3639 10.6516 13.8562 11.1438C14.3484 11.6361 14.625 12.3038 14.625 13C14.625 13.6962 14.3484 14.3639 13.8562 14.8562C13.3639 15.3484 12.6962 15.625 12 15.625C11.3038 15.625 10.6361 15.3484 10.1438 14.8562C9.65156 14.3639 9.375 13.6962 9.375 13Z" fill="white"/>
<path fill-rule="evenodd" clip-rule="evenodd" d="M11.9707 0.458008C11.4516 0.458008 11.0187 0.458008 10.6641 0.481341C10.3015 0.495944 9.94386 0.570858 9.6059 0.703008C9.21653 0.864112 8.8627 1.10034 8.56463 1.39821C8.26657 1.69608 8.0301 2.04974 7.86873 2.43901C7.69957 2.84734 7.65407 3.27901 7.6354 3.74801C7.63332 3.91949 7.58782 4.08764 7.50315 4.23678C7.41848 4.38591 7.29741 4.51117 7.15123 4.60084C7.00053 4.68288 6.83148 4.72538 6.6599 4.72436C6.48831 4.72334 6.31979 4.67884 6.17007 4.59501C5.75473 4.37567 5.35807 4.19951 4.9194 4.14117C4.50167 4.08623 4.07721 4.1141 3.67025 4.22319C3.26328 4.33229 2.8818 4.52048 2.54757 4.77701C2.26453 5.0039 2.02125 5.27635 1.82773 5.58318C1.6294 5.87951 1.4124 6.25401 1.1534 6.70318L1.12423 6.75451C0.864067 7.20367 0.648233 7.57817 0.4919 7.89784C0.328567 8.23151 0.200233 8.56051 0.153567 8.92451C0.042267 9.768 0.27056 10.6212 0.788233 11.2963C1.05773 11.6475 1.4089 11.903 1.80557 12.1527C1.95331 12.2403 2.0764 12.3639 2.16332 12.5121C2.25025 12.6602 2.29816 12.828 2.30257 12.9997C2.29816 13.1714 2.25025 13.3391 2.16332 13.4873C2.0764 13.6354 1.95331 13.7591 1.80557 13.8467C1.4089 14.0963 1.0589 14.3518 0.788233 14.703C0.531703 15.0372 0.343517 15.4187 0.23442 15.8257C0.125324 16.2326 0.0974532 16.6571 0.1524 17.0748C0.200233 17.4388 0.3274 17.7678 0.490733 18.1015C0.648233 18.4212 0.864067 18.7957 1.12423 19.2448L1.1534 19.2962C1.4124 19.7453 1.6294 20.1198 1.82773 20.4162C2.03423 20.723 2.2559 20.9995 2.54757 21.2212C2.88171 21.4779 3.26316 21.6663 3.67012 21.7756C4.07708 21.8849 4.50159 21.913 4.9194 21.8582C5.35807 21.7998 5.75473 21.6248 6.17007 21.4043C6.31964 21.3207 6.48796 21.2763 6.65932 21.2753C6.83068 21.2743 6.99951 21.3167 7.15007 21.3985C7.29743 21.4871 7.41957 21.612 7.50476 21.7614C7.58995 21.9107 7.63534 22.0794 7.63657 22.2513C7.65407 22.7203 7.69957 23.152 7.8699 23.5603C8.031 23.9497 8.26724 24.3035 8.5651 24.6016C8.86297 24.8997 9.21663 25.1361 9.6059 25.2975C9.94423 25.4375 10.2942 25.4923 10.6641 25.5168C11.0187 25.5413 11.4516 25.5413 11.9707 25.5413H12.0291C12.5482 25.5413 12.9811 25.5413 13.3357 25.518C13.7067 25.4923 14.0556 25.4375 14.3939 25.2963C14.7833 25.1352 15.1371 24.899 15.4352 24.6011C15.7332 24.3033 15.9697 23.9496 16.1311 23.5603C16.3002 23.152 16.3457 22.7203 16.3644 22.2513C16.3663 22.0797 16.4117 21.9113 16.4964 21.7619C16.581 21.6126 16.7022 21.4871 16.8486 21.3973C16.9994 21.3155 17.1685 21.2732 17.3401 21.2744C17.5116 21.2756 17.6801 21.3203 17.8297 21.4043C18.2451 21.6237 18.6417 21.7998 19.0804 21.857C19.9239 21.9683 20.777 21.74 21.4522 21.2223C21.7439 20.9983 21.9656 20.723 22.1721 20.4162C22.3704 20.1198 22.5874 19.7453 22.8464 19.2962L22.8756 19.2448C23.1357 18.7957 23.3516 18.4212 23.5079 18.1015C23.6712 17.7678 23.7996 17.4377 23.8462 17.0748C23.9575 16.2314 23.7292 15.3782 23.2116 14.703C22.9421 14.3518 22.5909 14.0963 22.1942 13.8467C22.0465 13.7591 21.9234 13.6354 21.8365 13.4873C21.7496 13.3391 21.7016 13.1714 21.6972 12.9997C21.6972 12.6753 21.8746 12.3533 22.1942 12.1527C22.5909 11.903 22.9409 11.6475 23.2116 11.2963C23.4681 10.9621 23.6563 10.5806 23.7654 10.1737C23.8745 9.7667 23.9023 9.34224 23.8474 8.92451C23.7924 8.56587 23.6781 8.2189 23.5091 7.89784C23.3098 7.51025 23.0985 7.12895 22.8756 6.75451L22.8464 6.70318C22.6333 6.32293 22.4084 5.94942 22.1721 5.58318C21.9784 5.27676 21.7352 5.00471 21.4522 4.77817C21.1181 4.52144 20.7366 4.33304 20.3297 4.22375C19.9227 4.11445 19.4982 4.08639 19.0804 4.14117C18.6417 4.19951 18.2451 4.37451 17.8297 4.59501C17.6802 4.67863 17.5118 4.72302 17.3405 4.72404C17.1691 4.72506 17.0003 4.68268 16.8497 4.60084C16.7031 4.51145 16.5816 4.38632 16.4965 4.23716C16.4114 4.08801 16.3656 3.91971 16.3632 3.74801C16.3457 3.27901 16.3002 2.84734 16.1299 2.43901C15.9688 2.04963 15.7326 1.69581 15.4347 1.39774C15.1368 1.09968 14.7832 0.863207 14.3939 0.701841C14.0556 0.561841 13.7056 0.507008 13.3357 0.482508C12.9811 0.458008 12.5482 0.458008 12.0291 0.458008H11.9707ZM10.2756 2.31884C10.3654 2.28151 10.5019 2.24767 10.7831 2.22784C11.0712 2.20801 11.4446 2.20801 11.9999 2.20801C12.5552 2.20801 12.9286 2.20801 13.2167 2.22784C13.4979 2.24767 13.6344 2.28151 13.7242 2.31884C14.0824 2.46701 14.3659 2.75051 14.5141 3.10867C14.5607 3.22067 14.5992 3.39684 14.6144 3.81334C14.6494 4.73734 15.1266 5.62751 15.9736 6.11634C16.8206 6.60518 17.8297 6.57368 18.6476 6.14201C19.0162 5.94718 19.1877 5.89234 19.3091 5.87717C19.6924 5.82652 20.0801 5.93018 20.3871 6.16534C20.4641 6.22484 20.5621 6.32634 20.7196 6.55967C20.8817 6.80001 21.0684 7.12318 21.3461 7.60384C21.6237 8.08451 21.8092 8.40884 21.9364 8.66784C22.0612 8.92101 22.0997 9.05634 22.1114 9.15318C22.1621 9.5365 22.0584 9.92425 21.8232 10.2312C21.7486 10.328 21.6156 10.4493 21.2632 10.671C20.4792 11.1633 19.9472 12.022 19.9472 12.9997C19.9472 13.9773 20.4792 14.836 21.2632 15.3283C21.6156 15.55 21.7486 15.6713 21.8232 15.7682C22.0589 16.075 22.1616 16.4623 22.1114 16.8462C22.0997 16.943 22.0601 17.0795 21.9364 17.3315C21.8092 17.5917 21.6237 17.9148 21.3461 18.3955C21.0684 18.8762 20.8806 19.1993 20.7196 19.4397C20.5621 19.673 20.4641 19.7745 20.3871 19.834C20.0801 20.0692 19.6924 20.1728 19.3091 20.1222C19.1877 20.107 19.0174 20.0522 18.6476 19.8573C17.8309 19.4257 16.8206 19.393 15.9736 19.8818C15.1266 20.3707 14.6494 21.262 14.6144 22.186C14.5992 22.6025 14.5607 22.7787 14.5141 22.8907C14.4408 23.0678 14.3333 23.2287 14.1978 23.3642C14.0622 23.4997 13.9013 23.6072 13.7242 23.6805C13.6344 23.7178 13.4979 23.7517 13.2167 23.7715C12.9286 23.7913 12.5552 23.7913 11.9999 23.7913C11.4446 23.7913 11.0712 23.7913 10.7831 23.7715C10.5019 23.7517 10.3654 23.7178 10.2756 23.6805C10.0985 23.6072 9.93756 23.4997 9.80203 23.3642C9.66651 23.2287 9.55902 23.0678 9.48573 22.8907C9.43907 22.7787 9.40057 22.6025 9.3854 22.186C9.3504 21.262 8.87323 20.3718 8.02623 19.883C7.17923 19.3942 6.17007 19.4257 5.35223 19.8573C4.98357 20.0522 4.81207 20.107 4.69073 20.1222C4.30741 20.1728 3.91966 20.0692 3.61273 19.834C3.53573 19.7745 3.43773 19.673 3.28023 19.4397C3.06076 19.0981 2.85183 18.7499 2.65373 18.3955C2.37607 17.9148 2.19057 17.5905 2.0634 17.3315C1.93857 17.0783 1.90007 16.943 1.8884 16.8462C1.83775 16.4628 1.9414 16.0751 2.17657 15.7682C2.25123 15.6713 2.38423 15.55 2.73657 15.3283C3.52057 14.836 4.05257 13.9773 4.05257 12.9997C4.05257 12.022 3.52057 11.1633 2.73657 10.671C2.38423 10.4493 2.25123 10.328 2.17657 10.2312C1.9414 9.92425 1.83775 9.5365 1.8884 9.15318C1.90007 9.05634 1.93973 8.91984 2.0634 8.66784C2.19057 8.40767 2.37607 8.08451 2.65373 7.60384C2.9314 7.12318 3.11923 6.80001 3.28023 6.55967C3.43773 6.32634 3.53573 6.22484 3.61273 6.16534C3.91966 5.93018 4.30741 5.82652 4.69073 5.87717C4.81207 5.89234 4.9824 5.94718 5.35223 6.14201C6.1689 6.57368 7.17923 6.60634 8.02623 6.11634C8.87323 5.62751 9.3504 4.73734 9.3854 3.81334C9.40057 3.39684 9.43907 3.22067 9.48573 3.10867C9.6339 2.75051 9.9174 2.46701 10.2756 2.31884Z" fill="white"/>
</svg>
