<svg width="261" height="161" viewBox="0 0 261 161" fill="none" xmlns="http://www.w3.org/2000/svg">
<path d="M139.31 153.426V145.024L145.43 147.276L174.612 160.187C175.814 149.972 172.47 141.88 169.354 139.156L140.812 119.626V97.0931C172.609 97.3438 238.907 97.3946 249.723 95.5919C263.243 93.3386 264.745 81.3208 253.478 69.3031C244.465 59.6889 213.03 53.3874 194.252 51.8851L142.314 49.7743V23.4845C140.562 15.2223 135.215 -0.992073 130.408 0.810587C125.601 2.61325 121.033 16.7245 119.03 23.4845V50.5244C109.766 50.5244 86.8825 50.8248 69.4568 52.0266C47.6746 53.5288 13.9845 58.5072 3.46894 72.7783C-4.94347 84.1951 3.47143 94.5604 12.4842 97.0931H120.533V119.626C114.273 124.133 100.553 133.897 95.746 136.902C90.9389 139.906 89.7372 143.161 89.7372 144.413L88.235 159.435L124.399 145.024L124.288 153.426H139.31Z" fill="#9AE2FF" fill-opacity="0.6"/>
<path d="M41.6211 91.3477H87.6118V97.059H41.6211V91.3477Z" fill="#D1FFD3" fill-opacity="0.8"/>
<path d="M93.7307 153.33L108.366 147.223L108.194 151.501L93.0554 157.472L93.7307 153.33Z" fill="#D1FFD3" fill-opacity="0.8"/>
<path d="M165.58 152.312L151.191 145.643L151.191 149.824L166.094 156.477L165.58 152.312Z" fill="#D1FFD3" fill-opacity="0.8"/>
<rect x="173.887" y="91.4375" width="45.9907" height="5.70842" fill="#D1FFD3" fill-opacity="0.8"/>
</svg>
