<svg width="161" height="162" viewBox="0 0 161 162" fill="none" xmlns="http://www.w3.org/2000/svg">
<circle cx="30.25" cy="30.832" r="30" fill="#9AE2FF" fill-opacity="0.4"/>
<circle cx="130.25" cy="30.832" r="30" fill="#D1FFD3" fill-opacity="0.4"/>
<circle cx="130.25" cy="131.832" r="30" fill="#9AE2FF" fill-opacity="0.4"/>
<path d="M60.25 131.832C60.25 148.401 46.8185 161.832 30.25 161.832C13.6815 161.832 0.25 148.401 0.25 131.832C0.25 115.263 13.6815 101.832 30.25 101.832C46.8185 101.832 60.25 115.263 60.25 131.832Z" fill="#D1FFD3" fill-opacity="0.4"/>
<path d="M128.25 21.832C133.221 21.832 137.25 25.8615 137.25 30.832C137.25 35.8026 133.221 39.832 128.25 39.832C127.462 39.832 126.699 39.7301 125.971 39.54L92.25 72.8301V87.8105L125.729 121.191C126.529 120.958 127.375 120.832 128.25 120.832C133.221 120.832 137.25 124.861 137.25 129.832C137.25 134.803 133.221 138.832 128.25 138.832C123.279 138.832 119.25 134.803 119.25 129.832C119.25 128.32 119.624 126.896 120.282 125.646L88.375 93.832H70.9775L39.0527 125.349C39.813 126.669 40.25 128.199 40.25 129.832C40.25 134.803 36.2206 138.832 31.25 138.832C26.2794 138.832 22.25 134.803 22.25 129.832C22.25 124.861 26.2794 120.832 31.25 120.832C31.9912 120.832 32.7113 120.923 33.4004 121.092L67.25 87.6748V72.7686L33.8359 39.4531C33.0168 39.6985 32.149 39.832 31.25 39.832C26.2794 39.832 22.25 35.8026 22.25 30.832C22.25 25.8615 26.2794 21.832 31.25 21.832C36.2206 21.832 40.25 25.8615 40.25 30.832C40.25 32.321 39.8853 33.7239 39.2451 34.9609L73.2158 68.832H86.3369L120.389 35.2139C119.664 33.917 119.25 32.4231 119.25 30.832C119.25 25.8615 123.279 21.832 128.25 21.832Z" fill="#D9D9D9"/>
</svg>
