<svg width="26" height="26" viewBox="0 0 26 26" fill="none" xmlns="http://www.w3.org/2000/svg">
<g clip-path="url(#clip0_1057_15059)">
<path d="M13 14.5635C13.8629 14.5635 14.5625 13.8639 14.5625 13.001C14.5625 12.138 13.8629 11.4385 13 11.4385C12.1371 11.4385 11.4375 12.138 11.4375 13.001C11.4375 13.8639 12.1371 14.5635 13 14.5635Z" fill="white"/>
<path d="M9.49596 9.88721C8.73376 10.7451 8.31276 11.8529 8.31276 13.0005C8.31276 14.1481 8.73376 15.2558 9.49596 16.1138M16.5038 16.1138C17.266 15.2558 17.687 14.1481 17.687 13.0005C17.687 11.8529 17.266 10.7451 16.5038 9.88721M7.00719 7.39844C5.58693 8.9179 4.79688 10.9201 4.79688 13C4.79688 15.0799 5.58693 17.0821 7.00719 18.6016M18.9916 18.6016C20.4118 17.0821 21.2019 15.0799 21.2019 13C21.2019 10.9201 20.4118 8.9179 18.9916 7.39844" stroke="white" stroke-linecap="round" stroke-linejoin="round"/>
<path d="M21.7402 20.8125C23.6585 18.6623 24.7186 15.8815 24.7186 13C24.7186 10.1185 23.6585 7.33768 21.7402 5.1875M4.2597 5.1875C2.34141 7.33768 1.28125 10.1185 1.28125 13C1.28125 15.8815 2.34141 18.6623 4.2597 20.8125" stroke="white" stroke-linecap="round" stroke-linejoin="round"/>
</g>
<defs>
<clipPath id="clip0_1057_15059">
<rect width="25" height="25" fill="white" transform="translate(0.5 0.5)"/>
</clipPath>
</defs>
</svg>
