<svg width="27" height="27" viewBox="0 0 27 27" fill="none" xmlns="http://www.w3.org/2000/svg">
<path fill-rule="evenodd" clip-rule="evenodd" d="M22.1676 3.92871C22.5985 3.92871 23.0119 4.09992 23.3166 4.40466C23.6214 4.70941 23.7926 5.12273 23.7926 5.55371V20.7204C23.7926 21.1514 23.6214 21.5647 23.3166 21.8694C23.0119 22.1742 22.5985 22.3454 22.1676 22.3454C21.7366 22.3454 21.3233 22.1742 21.0185 21.8694C20.7138 21.5647 20.5426 21.1514 20.5426 20.7204V5.55371C20.5426 5.12273 20.7138 4.70941 21.0185 4.40466C21.3233 4.09992 21.7366 3.92871 22.1676 3.92871ZM17.8342 7.17871C18.2652 7.17871 18.6785 7.34992 18.9833 7.65466C19.288 7.95941 19.4592 8.37273 19.4592 8.80371V20.7204C19.4592 21.1514 19.288 21.5647 18.9833 21.8694C18.6785 22.1742 18.2652 22.3454 17.8342 22.3454C17.4033 22.3454 16.9899 22.1742 16.6852 21.8694C16.3804 21.5647 16.2092 21.1514 16.2092 20.7204V8.80371C16.2092 8.37273 16.3804 7.95941 16.6852 7.65466C16.9899 7.34992 17.4033 7.17871 17.8342 7.17871ZM13.5009 10.4287C13.9319 10.4287 14.3452 10.5999 14.6499 10.9047C14.9547 11.2094 15.1259 11.6227 15.1259 12.0537V20.7204C15.1259 21.1514 14.9547 21.5647 14.6499 21.8694C14.3452 22.1742 13.9319 22.3454 13.5009 22.3454C13.0699 22.3454 12.6566 22.1742 12.3518 21.8694C12.0471 21.5647 11.8759 21.1514 11.8759 20.7204V12.0537C11.8759 11.6227 12.0471 11.2094 12.3518 10.9047C12.6566 10.5999 13.0699 10.4287 13.5009 10.4287ZM9.16756 13.6787C9.59854 13.6787 10.0119 13.8499 10.3166 14.1547C10.6214 14.4594 10.7926 14.8727 10.7926 15.3037V20.7204C10.7926 21.1514 10.6214 21.5647 10.3166 21.8694C10.0119 22.1742 9.59854 22.3454 9.16756 22.3454C8.73659 22.3454 8.32326 22.1742 8.01851 21.8694C7.71377 21.5647 7.54256 21.1514 7.54256 20.7204V15.3037C7.54256 14.8727 7.71377 14.4594 8.01851 14.1547C8.32326 13.8499 8.73659 13.6787 9.16756 13.6787ZM4.83423 16.9287C5.26521 16.9287 5.67853 17.0999 5.98328 17.4047C6.28802 17.7094 6.45923 18.1227 6.45923 18.5537V20.7204C6.45923 21.1514 6.28802 21.5647 5.98328 21.8694C5.67853 22.1742 5.26521 22.3454 4.83423 22.3454C4.40325 22.3454 3.98993 22.1742 3.68518 21.8694C3.38043 21.5647 3.20923 21.1514 3.20923 20.7204V18.5537C3.20923 18.1227 3.38043 17.7094 3.68518 17.4047C3.98993 17.0999 4.40325 16.9287 4.83423 16.9287Z" fill="white"/>
</svg>
