<svg width="20" height="26" viewBox="0 0 20 26" fill="none" xmlns="http://www.w3.org/2000/svg">
<path fill-rule="evenodd" clip-rule="evenodd" d="M9.59424 25.4646C9.73679 25.4882 9.87226 25.5 10.0007 25.5C10.13 25.5 10.2655 25.4882 10.4071 25.4646C10.5487 25.441 10.6813 25.4056 10.805 25.3584C13.5919 24.2963 15.8067 22.495 17.4494 19.9545C19.0921 17.414 19.9134 14.6639 19.9134 11.7043V5.63906C19.9134 5.15381 19.7751 4.7167 19.4985 4.32774C19.2219 3.93973 18.8646 3.65792 18.4265 3.48233L10.8022 0.650108C10.5256 0.550036 10.2584 0.5 10.0007 0.5C9.74293 0.5 9.47623 0.550036 9.20056 0.650108L1.57481 3.48233C1.13581 3.65698 0.77848 3.93879 0.502811 4.32774C0.226198 4.7167 0.0878906 5.15381 0.0878906 5.63906V11.7043C0.0878906 14.6639 0.909234 17.414 2.55192 19.9545C4.19461 22.495 6.40988 24.2963 9.19772 25.3584C9.31951 25.4056 9.45168 25.441 9.59424 25.4646ZM16.0899 19.4929C14.485 21.8294 12.4552 23.3872 10.0007 24.166C7.54607 23.3872 5.51631 21.8294 3.91139 19.4929C2.30646 17.1563 1.504 14.5601 1.504 11.7043V5.61216C1.504 5.43089 1.55404 5.26757 1.65411 5.12218C1.75324 4.97679 1.8939 4.86823 2.07611 4.79648L9.70044 1.96426C9.79108 1.92649 9.89115 1.90761 10.0007 1.90761C10.1102 1.90761 10.2102 1.92649 10.3009 1.96426L17.9252 4.79648C18.1074 4.86823 18.2481 4.97679 18.3472 5.12218C18.4473 5.26757 18.4973 5.43089 18.4973 5.61216V11.7043C18.4973 14.5601 17.6949 17.1563 16.0899 19.4929Z" fill="white"/>
</svg>
