<svg width="28" height="28" viewBox="0 0 28 28" fill="none" xmlns="http://www.w3.org/2000/svg">
<path fill-rule="evenodd" clip-rule="evenodd" d="M16.086 4.4378C15.554 2.2538 12.446 2.2538 11.914 4.4378C11.8346 4.76599 11.6788 5.07078 11.4593 5.32738C11.2398 5.58398 10.9629 5.78514 10.651 5.91448C10.3391 6.04383 10.0011 6.0977 9.6644 6.07173C9.32774 6.04576 9.00197 5.94066 8.7136 5.765C6.7928 4.5946 4.5948 6.7926 5.7652 8.7134C6.5212 9.9538 5.8506 11.5722 4.4394 11.9152C2.254 12.4458 2.254 15.5552 4.4394 16.0844C4.76767 16.1639 5.07252 16.3199 5.32912 16.5395C5.58572 16.7591 5.78682 17.0363 5.91604 17.3484C6.04526 17.6604 6.09895 17.9986 6.07274 18.3353C6.04653 18.6721 5.94116 18.9979 5.7652 19.2862C4.5948 21.207 6.7928 23.405 8.7136 22.2346C9.00192 22.0587 9.32772 21.9533 9.66446 21.9271C10.0012 21.9009 10.3394 21.9545 10.6515 22.0838C10.9635 22.213 11.2407 22.4141 11.4603 22.6707C11.6799 22.9273 11.8359 23.2321 11.9154 23.5604C12.446 25.7458 15.5554 25.7458 16.0846 23.5604C16.1644 23.2323 16.3205 22.9277 16.5402 22.6712C16.7599 22.4148 17.037 22.2139 17.3489 22.0847C17.6609 21.9555 17.999 21.9017 18.3356 21.9278C18.6723 21.9538 18.998 22.059 19.2864 22.2346C21.2072 23.405 23.4052 21.207 22.2348 19.2862C22.0592 18.9978 21.954 18.6721 21.928 18.3354C21.9019 17.9988 21.9557 17.6607 22.0849 17.3487C22.2141 17.0368 22.415 16.7597 22.6714 16.54C22.9279 16.3203 23.2325 16.1642 23.5606 16.0844C25.746 15.5538 25.746 12.4444 23.5606 11.9152C23.2323 11.8357 22.9275 11.6797 22.6709 11.4601C22.4143 11.2405 22.2132 10.9633 22.084 10.6513C21.9547 10.3392 21.9011 10.001 21.9273 9.66426C21.9535 9.32752 22.0589 9.00172 22.2348 8.7134C23.4052 6.7926 21.2072 4.5946 19.2864 5.765C18.9981 5.94096 18.6723 6.04633 18.3355 6.07254C17.9988 6.09875 17.6606 6.04506 17.3486 5.91584C17.0365 5.78662 16.7593 5.58552 16.5397 5.32892C16.3201 5.07232 16.1641 4.76747 16.0846 4.4392L16.086 4.4378ZM14 18.1998C15.1139 18.1998 16.1822 17.7573 16.9699 16.9697C17.7575 16.182 18.2 15.1137 18.2 13.9998C18.2 12.8859 17.7575 11.8176 16.9699 11.03C16.1822 10.2423 15.1139 9.7998 14 9.7998C12.8861 9.7998 11.8178 10.2423 11.0302 11.03C10.2425 11.8176 9.8 12.8859 9.8 13.9998C9.8 15.1137 10.2425 16.182 11.0302 16.9697C11.8178 17.7573 12.8861 18.1998 14 18.1998V18.1998Z" fill="white"/>
</svg>
