<svg width="28" height="18" viewBox="0 0 28 18" fill="none" xmlns="http://www.w3.org/2000/svg">
<path d="M5.72461 1.19336H22.0732C23.3924 1.19336 24.5101 2.20446 24.666 3.50391L24.6846 3.7666V14.2598H27.2227C27.3819 14.26 27.5 14.3788 27.5 14.5381V14.7998H0.571289L1.26758 15.623C1.56473 15.974 2.19601 16.2354 2.94043 16.2354H25.0752C25.8147 16.2354 26.4302 15.9691 26.7344 15.6396L27.5 14.8086V15.1445C27.5 15.559 27.2821 15.9613 26.8525 16.2773C26.4206 16.5949 25.7921 16.8066 25.0596 16.8066H2.94043C2.2079 16.8066 1.5794 16.5949 1.14746 16.2773C0.717891 15.9613 0.500021 15.559 0.5 15.1445V14.5381C0.5 14.3788 0.61815 14.26 0.777344 14.2598H3.09766V3.78223C3.12394 2.34338 4.30212 1.19336 5.72461 1.19336ZM5.77148 1.74902C4.53395 1.68471 3.67312 2.67147 3.65332 3.78027V14.2598H24.1445V3.76465C24.1235 2.60756 23.1746 1.78815 22.0596 1.74902H5.77148ZM5.73828 2.74805L5.75488 2.74902H22.0244L22.1455 2.75781C22.6982 2.82425 23.0814 3.20671 23.1377 3.67969L23.1445 3.78223V13.2598H4.65332V3.79785C4.66446 3.17422 5.12674 2.70728 5.73828 2.74805Z" fill="white" stroke="white"/>
</svg>
