<svg width="241" height="171" viewBox="0 0 241 171" fill="none" xmlns="http://www.w3.org/2000/svg">
<path d="M39.4337 44.8355C8.6465 49.3137 0.483236 64.4102 0.25 71.4073L111.504 75.6118L113.603 153.979C112.203 153.979 109.405 153.968 100.308 153.979C91.2121 153.99 86.0809 165.174 83.5153 170.772L154.886 170.072C150.967 159.997 143.69 154.69 139.492 153.979C135.294 153.268 125.498 153.279 125.498 153.279L128.297 75.6118L240.25 70.7138C230.174 51.122 210.396 44.8204 201.766 44.1186H131.095C128.996 16.83 133.195 4.17132 124.098 1.43643C112.905 -1.92898 110.104 7.96704 110.104 13.3315L108.705 44.1186L39.4337 44.8355Z" fill="#9AE2FF" fill-opacity="0.6"/>
<path d="M97.6406 164.777H140.484V170.095L97.6406 170.544V164.777Z" fill="#D1FFD3" fill-opacity="0.8"/>
<path d="M113.516 152.996H125.465V164.776H113.516V152.996Z" fill="#D1FFD3" fill-opacity="0.8"/>
<path d="M41.0742 67.4531L94.9402 69.6564L94.7228 74.9725L40.8568 72.7692L41.0742 67.4531Z" fill="#D1FFD3" fill-opacity="0.8"/>
<path d="M152.559 69.2305L206.418 66.8786L206.65 72.1941L152.791 74.5459L152.559 69.2305Z" fill="#D1FFD3" fill-opacity="0.8"/>
</svg>
