<svg width="20" height="20" viewBox="0 0 20 20" fill="none" xmlns="http://www.w3.org/2000/svg">
<path d="M12.1463 4.79917H0.857143C0.629814 4.79917 0.411797 4.67276 0.251051 4.44775C0.0903058 4.22274 0 3.91756 0 3.59934C0 3.28113 0.0903058 2.97595 0.251051 2.75094C0.411797 2.52593 0.629814 2.39952 0.857143 2.39952H12.1463C12.3237 1.69772 12.6522 1.09015 13.0865 0.660444C13.5208 0.230733 14.0396 0 14.5714 0C15.1033 0 15.622 0.230733 16.0563 0.660444C16.4906 1.09015 16.8191 1.69772 16.9966 2.39952H19.1429C19.3702 2.39952 19.5882 2.52593 19.749 2.75094C19.9097 2.97595 20 3.28113 20 3.59934C20 3.91756 19.9097 4.22274 19.749 4.44775C19.5882 4.67276 19.3702 4.79917 19.1429 4.79917H16.9966C16.8191 5.50097 16.4906 6.10854 16.0563 6.53825C15.622 6.96796 15.1033 7.19869 14.5714 7.19869C14.0396 7.19869 13.5208 6.96796 13.0865 6.53825C12.6522 6.10854 12.3237 5.50097 12.1463 4.79917ZM19.1429 17.5973C19.3702 17.5973 19.5882 17.4709 19.749 17.2459C19.9097 17.0208 20 16.7157 20 16.3975C20 16.0792 19.9097 15.7741 19.749 15.5491C19.5882 15.324 19.3702 15.1976 19.1429 15.1976H7.85371C7.67626 14.4958 7.34778 13.8883 6.91348 13.4586C6.47918 13.0288 5.96041 12.7981 5.42857 12.7981C4.89673 12.7981 4.37796 13.0288 3.94366 13.4586C3.50937 13.8883 3.18088 14.4958 3.00343 15.1976H0.857143C0.629814 15.1976 0.411797 15.324 0.251051 15.5491C0.0903058 15.7741 0 16.0792 0 16.3975C0 16.7157 0.0903058 17.0208 0.251051 17.2459C0.411797 17.4709 0.629814 17.5973 0.857143 17.5973H3.00343C3.18036 18.2998 3.50864 18.9082 3.943 19.3385C4.37737 19.7689 4.89642 20 5.42857 20C5.96073 20 6.47978 19.7689 6.91414 19.3385C7.3485 18.9082 7.67678 18.2998 7.85371 17.5973H19.1429Z" fill="white"/>
</svg>
