<svg width="11" height="11" viewBox="0 0 11 11" fill="none" xmlns="http://www.w3.org/2000/svg">
<path d="M5.49967 6.66634L1.41634 10.7497C1.26356 10.9025 1.06912 10.9788 0.833008 10.9788C0.596897 10.9788 0.402452 10.9025 0.249674 10.7497C0.0968964 10.5969 0.0205078 10.4025 0.0205078 10.1663C0.0205078 9.93023 0.0968964 9.73579 0.249674 9.58301L4.33301 5.49967L0.249674 1.41634C0.0968964 1.26356 0.0205078 1.06912 0.0205078 0.833008C0.0205078 0.596897 0.0968964 0.402452 0.249674 0.249674C0.402452 0.0968964 0.596897 0.0205078 0.833008 0.0205078C1.06912 0.0205078 1.26356 0.0968964 1.41634 0.249674L5.49967 4.33301L9.58301 0.249674C9.73579 0.0968964 9.93023 0.0205078 10.1663 0.0205078C10.4025 0.0205078 10.5969 0.0968964 10.7497 0.249674C10.9025 0.402452 10.9788 0.596897 10.9788 0.833008C10.9788 1.06912 10.9025 1.26356 10.7497 1.41634L6.66634 5.49967L10.7497 9.58301C10.9025 9.73579 10.9788 9.93023 10.9788 10.1663C10.9788 10.4025 10.9025 10.5969 10.7497 10.7497C10.5969 10.9025 10.4025 10.9788 10.1663 10.9788C9.93023 10.9788 9.73579 10.9025 9.58301 10.7497L5.49967 6.66634Z" fill="white"/>
</svg>
