<svg width="188" height="172" viewBox="0 0 188 172" fill="none" xmlns="http://www.w3.org/2000/svg">
<circle cx="30.4805" cy="30.2852" r="30" fill="#D1FFD3" fill-opacity="0.4"/>
<circle cx="91.4648" cy="141.375" r="30" fill="#D1FFD3" fill-opacity="0.4"/>
<circle cx="151.465" cy="30.2852" r="30" fill="#9AE2FF" fill-opacity="0.4"/>
<path d="M150.543 21.6914C155.514 21.6914 159.543 25.7208 159.543 30.6914C159.543 35.662 155.514 39.6914 150.543 39.6914C149.096 39.6914 147.73 39.3479 146.519 38.7412L104.953 67.1426V81.5264H95.9932L95.8535 129.172C99.2609 130.454 101.686 133.742 101.686 137.598C101.686 142.568 97.6561 146.598 92.6855 146.598C87.715 146.598 83.6855 142.568 83.6855 137.598C83.6855 133.998 85.7991 130.893 88.8525 129.453L88.9932 81.5264H79.9531V66.7979L36.4502 41.2949C35.2302 41.9128 33.8517 42.2637 32.3906 42.2637C27.4201 42.2637 23.3906 38.2342 23.3906 33.2637C23.3906 28.2931 27.4201 24.2637 32.3906 24.2637C37.3612 24.2637 41.3906 28.2931 41.3906 33.2637C41.3906 34.1641 41.2569 35.0332 41.0107 35.8535L79.9531 58.6836V56.5264H89.0664V56.5059L96.0664 56.5264H104.953V58.6641L141.952 33.3828C141.686 32.533 141.543 31.6289 141.543 30.6914C141.543 25.7208 145.572 21.6914 150.543 21.6914Z" fill="#D9D9D9"/>
</svg>
