<svg width="14" height="16" viewBox="0 0 14 16" fill="none" xmlns="http://www.w3.org/2000/svg">
<path d="M12.9218 6.95583L5.04913 15.0509C4.83035 15.2752 4.46753 15.0153 4.60974 14.7364L7.41202 9.20659C7.43324 9.16485 7.4434 9.11837 7.44151 9.07158C7.43962 9.0248 7.42576 8.97929 7.40124 8.9394C7.37672 8.89951 7.34237 8.86658 7.30148 8.84377C7.26059 8.82096 7.21453 8.80903 7.16771 8.80913H1.27326C1.21942 8.80908 1.1668 8.79315 1.12197 8.76332C1.07715 8.7335 1.04213 8.69111 1.0213 8.64146C1.00047 8.59182 0.994755 8.53713 1.00487 8.48425C1.01499 8.43137 1.04049 8.38266 1.07818 8.34421L8.38014 0.946523C8.59164 0.732295 8.94352 0.96749 8.82592 1.24553L6.73196 6.18188C6.71423 6.22373 6.70721 6.26934 6.71154 6.31458C6.71586 6.35982 6.73139 6.40328 6.75673 6.44101C6.78207 6.47874 6.81641 6.50957 6.85665 6.53069C6.89689 6.55182 6.94176 6.56259 6.98721 6.56202L12.7221 6.49091C12.7762 6.49004 12.8294 6.50525 12.8749 6.53461C12.9203 6.56398 12.9561 6.60617 12.9776 6.65586C12.999 6.70554 13.0053 6.76048 12.9955 6.81372C12.9857 6.86695 12.9604 6.9161 12.9227 6.95492L12.9218 6.95583Z" stroke="white"/>
</svg>
