<svg width="29" height="30" viewBox="0 0 29 30" fill="none" xmlns="http://www.w3.org/2000/svg">
<path d="M23.3987 21.4308L20.6572 24.1724C20.4334 24.0363 20.1709 23.9578 19.8904 23.9578C19.5975 23.9578 19.3245 24.0437 19.0945 24.1912C19.0775 24.1437 19.0503 24.099 19.0123 24.061L15.255 20.3037C15.2377 20.2864 15.219 20.2712 15.1993 20.2583L15.449 16.014C15.5156 16.0011 15.5792 15.9689 15.6307 15.9173L20.5153 11.0328C20.5335 11.0145 20.5492 10.9946 20.5626 10.9737C20.5947 10.9572 20.6264 10.94 20.6572 10.9213L23.3987 13.6628C23.4675 13.7316 23.5576 13.766 23.6478 13.766C23.7379 13.766 23.8281 13.7317 23.8968 13.6628C24.0344 13.5253 24.0344 13.3023 23.8968 13.1647L21.1553 10.4232C21.2914 10.1994 21.3699 9.93693 21.3699 9.65645C21.3699 8.84068 20.7062 8.177 19.8904 8.177C19.6099 8.177 19.3474 8.25548 19.1237 8.39159L16.3822 5.65005C16.2446 5.51248 16.0216 5.51248 15.8841 5.65005C15.7465 5.78761 15.7465 6.01061 15.8841 6.14818L18.6256 8.88972C18.4894 9.11346 18.411 9.37596 18.411 9.65645C18.411 9.71882 18.4153 9.78016 18.4228 9.84051L14.8955 12.3096C14.799 12.1736 14.693 12.0427 14.5762 11.9188C13.9002 11.2019 12.9853 10.8071 12 10.8071C11.0147 10.8071 10.0998 11.2019 9.42383 11.9188C9.30702 12.0427 9.20097 12.1735 9.10455 12.3096L5.5772 9.84051C5.58471 9.78016 5.58904 9.71882 5.58904 9.65645C5.58904 9.37596 5.51055 9.11346 5.37444 8.88972L8.11599 6.14818C8.25355 6.01061 8.25355 5.78761 8.11599 5.65005C7.97842 5.51248 7.75538 5.51248 7.61786 5.65005L4.87631 8.39159C4.65256 8.25548 4.39007 8.177 4.10958 8.177C3.29382 8.177 2.63013 8.84068 2.63013 9.65645C2.63013 9.93693 2.70861 10.1994 2.84472 10.4232L0.103174 13.1647C-0.0343914 13.3023 -0.0343914 13.5253 0.103174 13.6628C0.171934 13.7317 0.26211 13.766 0.352239 13.766C0.442368 13.766 0.532545 13.7317 0.601304 13.6628L3.34285 10.9213C3.37357 10.94 3.40527 10.9572 3.43739 10.9737C3.45083 10.9946 3.46647 11.0145 3.48474 11.0328L8.36928 15.9173C8.42085 15.9689 8.48444 16.0011 8.55104 16.014L8.80072 20.2583C8.78104 20.2712 8.76235 20.2864 8.74501 20.3037L4.98767 24.061C4.94963 24.0991 4.92253 24.1437 4.90553 24.1912C4.67553 24.0437 4.40251 23.9578 4.10958 23.9578C3.8291 23.9578 3.5666 24.0363 3.34285 24.1724L0.601304 21.4308C0.463738 21.2933 0.240693 21.2933 0.103174 21.4308C-0.0343914 21.5684 -0.0343914 21.7915 0.103174 21.929L2.84472 24.6705C2.70861 24.8943 2.63013 25.1568 2.63013 25.4372C2.63013 26.253 3.29382 26.9167 4.10958 26.9167C4.39007 26.9167 4.65256 26.8383 4.87631 26.7022L7.61786 29.4437C7.68662 29.5125 7.77679 29.5469 7.86692 29.5469C7.95705 29.5469 8.04723 29.5125 8.11599 29.4437C8.25355 29.3061 8.25355 29.0831 8.11599 28.9456L5.44489 26.2744L9.74001 23.9617C10.0389 24.1667 10.3997 24.2866 10.787 24.2866H13.213C13.6003 24.2866 13.9611 24.1667 14.26 23.9617L18.5551 26.2744L15.884 28.9456C15.7464 29.0831 15.7464 29.3062 15.884 29.4437C15.9528 29.5125 16.0429 29.5469 16.1331 29.5469C16.2232 29.5469 16.3134 29.5125 16.3821 29.4437L19.1237 26.7022C19.3474 26.8383 19.6099 26.9167 19.8904 26.9167C20.7062 26.9167 21.3699 26.253 21.3699 25.4372C21.3699 25.1568 21.2914 24.8943 21.1553 24.6706L23.8968 21.929C24.0344 21.7915 24.0344 21.5684 23.8968 21.4309C23.7593 21.2933 23.5363 21.2933 23.3987 21.4308Z" fill="white"/>
<path fill-rule="evenodd" clip-rule="evenodd" d="M27.5301 7.57238C27.6839 7.48454 27.8115 7.35745 27.9 7.2041C27.9665 7.09042 28.0095 6.96459 28.0266 6.83403C28.0436 6.70347 28.0344 6.57082 27.9995 6.44387C27.9646 6.31692 27.9046 6.19824 27.8231 6.09481C27.7416 5.99138 27.6403 5.90529 27.525 5.8416L26.95 5.5041C27.0167 5.14046 27.0167 4.76774 26.95 4.4041L27.525 4.0666C27.6403 4.00292 27.7416 3.91683 27.8231 3.8134C27.9046 3.70997 27.9646 3.59129 27.9995 3.46434C28.0344 3.33739 28.0436 3.20473 28.0266 3.07417C28.0095 2.94361 27.9665 2.81779 27.9 2.7041C27.7645 2.47511 27.5442 2.30869 27.2869 2.24085C27.0295 2.17302 26.7559 2.20921 26.525 2.3416L25.95 2.6791C25.6699 2.4389 25.3478 2.25245 25 2.1291V1.4541C25 1.18888 24.8947 0.934532 24.7071 0.746996C24.5196 0.55946 24.2652 0.454102 24 0.454102C23.7348 0.454102 23.4805 0.55946 23.2929 0.746996C23.1054 0.934532 23 1.18888 23 1.4541V2.1291C22.6522 2.25245 22.3302 2.4389 22.05 2.6791L21.475 2.3416C21.2442 2.20921 20.9705 2.17302 20.7132 2.24085C20.4559 2.30869 20.2356 2.47511 20.1 2.7041C20.0336 2.81779 19.9906 2.94361 19.9735 3.07417C19.9564 3.20473 19.9656 3.33739 20.0006 3.46434C20.0355 3.59129 20.0955 3.70997 20.177 3.8134C20.2584 3.91683 20.3598 4.00292 20.475 4.0666L21.05 4.4041C20.9834 4.76774 20.9834 5.14046 21.05 5.5041L20.475 5.8416C20.2861 5.95243 20.1388 6.12222 20.0558 6.32488C19.9727 6.52754 19.9585 6.75186 20.0152 6.9634C20.072 7.17493 20.1967 7.36197 20.3701 7.49578C20.5435 7.62959 20.756 7.70278 20.975 7.7041C21.1512 7.70552 21.3243 7.65792 21.475 7.5666L22.05 7.2291C22.3302 7.4693 22.6522 7.65576 23 7.7791V8.4541C23 8.71932 23.1054 8.97367 23.2929 9.16121C23.4805 9.34875 23.7348 9.4541 24 9.4541C24.2652 9.4541 24.5196 9.34875 24.7071 9.16121C24.8947 8.97367 25 8.71932 25 8.4541V7.7791C25.3478 7.65576 25.6699 7.4693 25.95 7.2291L26.525 7.5666C26.6757 7.65792 26.8488 7.70552 27.025 7.7041C27.2021 7.70569 27.3764 7.66023 27.5301 7.57238ZM24.5556 5.78557C24.3911 5.89545 24.1978 5.9541 24 5.9541C23.7348 5.9541 23.4805 5.84875 23.2929 5.66121C23.1054 5.47367 23 5.21932 23 4.9541C23 4.75632 23.0587 4.56298 23.1686 4.39853C23.2784 4.23408 23.4346 4.10591 23.6173 4.03022C23.8001 3.95453 24.0011 3.93473 24.1951 3.97332C24.3891 4.0119 24.5673 4.10714 24.7071 4.24699C24.847 4.38685 24.9422 4.56503 24.9808 4.75901C25.0194 4.95299 24.9996 5.15406 24.9239 5.33678C24.8482 5.51951 24.72 5.67569 24.5556 5.78557Z" fill="white"/>
</svg>
