<svg width="21" height="21" viewBox="0 0 21 21" fill="none" xmlns="http://www.w3.org/2000/svg">
<path d="M10.5768 11.6654L6.49349 15.7487C6.34071 15.9015 6.14627 15.9779 5.91016 15.9779C5.67405 15.9779 5.4796 15.9015 5.32682 15.7487C5.17404 15.5959 5.09766 15.4015 5.09766 15.1654C5.09766 14.9293 5.17404 14.7348 5.32682 14.582L9.41016 10.4987L5.32682 6.41536C5.17404 6.26259 5.09766 6.06814 5.09766 5.83203C5.09766 5.59592 5.17404 5.40148 5.32682 5.2487C5.4796 5.09592 5.67405 5.01953 5.91016 5.01953C6.14627 5.01953 6.34071 5.09592 6.49349 5.2487L10.5768 9.33203L14.6602 5.2487C14.8129 5.09592 15.0074 5.01953 15.2435 5.01953C15.4796 5.01953 15.674 5.09592 15.8268 5.2487C15.9796 5.40148 16.056 5.59592 16.056 5.83203C16.056 6.06814 15.9796 6.26259 15.8268 6.41536L11.7435 10.4987L15.8268 14.582C15.9796 14.7348 16.056 14.9293 16.056 15.1654C16.056 15.4015 15.9796 15.5959 15.8268 15.7487C15.674 15.9015 15.4796 15.9779 15.2435 15.9779C15.0074 15.9779 14.8129 15.9015 14.6602 15.7487L10.5768 11.6654Z" fill="white"/>
</svg>
