<svg width="182" height="182" viewBox="0 0 182 182" fill="none" xmlns="http://www.w3.org/2000/svg">
<circle cx="30.9805" cy="40.4531" r="30" fill="#9AE2FF" fill-opacity="0.4"/>
<circle cx="91.9648" cy="151.547" r="30" fill="#9AE2FF" fill-opacity="0.4"/>
<circle cx="151.965" cy="40.4531" r="30" fill="#9AE2FF" fill-opacity="0.4"/>
<circle cx="31.9648" cy="30.0312" r="30" fill="#D1FFD3" fill-opacity="0.4"/>
<circle cx="151.965" cy="30.0312" r="30" fill="#D1FFD3" fill-opacity="0.4"/>
<circle cx="91.9648" cy="139.211" r="30" fill="#D1FFD3" fill-opacity="0.4"/>
<path d="M151.043 31.8594C156.014 31.8594 160.043 35.8888 160.043 40.8594C160.043 45.8299 156.014 49.8594 151.043 49.8594C149.596 49.8594 148.23 49.5159 147.019 48.9092L105.453 77.3105V91.6943H96.4932L96.3535 139.34C99.7609 140.622 102.186 143.91 102.186 147.766C102.186 152.736 98.1561 156.766 93.1855 156.766C88.215 156.766 84.1855 152.736 84.1855 147.766C84.1855 144.166 86.2991 141.061 89.3525 139.621L89.4932 91.6943H80.4531V76.9658L36.9502 51.4629C35.7302 52.0808 34.3517 52.4316 32.8906 52.4316C27.9201 52.4316 23.8906 48.4022 23.8906 43.4316C23.8906 38.4611 27.9201 34.4316 32.8906 34.4316C37.8612 34.4316 41.8906 38.4611 41.8906 43.4316C41.8906 44.3321 41.7569 45.2012 41.5107 46.0215L80.4531 68.8516V66.6943H89.5664V66.6738L96.5664 66.6943H105.453V68.832L142.452 43.5508C142.186 42.701 142.043 41.7969 142.043 40.8594C142.043 35.8888 146.072 31.8594 151.043 31.8594Z" fill="#D9D9D9"/>
</svg>
