<?xml version="1.0" standalone="no"?>
<!DOCTYPE svg PUBLIC "-//W3C//DTD SVG 20010904//EN"
 "http://www.w3.org/TR/2001/REC-SVG-20010904/DTD/svg10.dtd">
<svg version="1.0" xmlns="http://www.w3.org/2000/svg"
 width="500.000000pt" height="500.000000pt" viewBox="0 0 500.000000 500.000000"
 preserveAspectRatio="xMidYMid meet">

<g transform="translate(0.000000,500.000000) scale(0.100000,-0.100000)"
fill="#000000" stroke="none">
<path d="M3595 3804 c-121 -69 -242 -138 -270 -153 -27 -16 -66 -37 -85 -48
-19 -11 -75 -41 -125 -68 -49 -27 -107 -59 -127 -72 l-38 -23 0 -156 0 -156
63 35 c190 105 415 232 437 247 14 9 33 20 43 23 16 6 17 -22 15 -546 l-3
-552 -168 -3 c-200 -3 -193 -6 -287 125 -59 81 -118 162 -210 288 -20 28 -65
88 -98 135 -73 100 -252 348 -294 405 -16 22 -36 49 -43 60 -99 139 -236 316
-264 342 -93 84 -154 93 -615 93 l-367 0 2 -852 c1 -469 4 -860 8 -869 5 -13
37 4 169 88 l162 105 0 597 c0 451 3 600 12 609 8 8 63 12 184 12 161 0 173
-1 204 -22 28 -20 138 -168 519 -700 l40 -56 -82 -50 c-94 -56 -335 -208 -509
-321 -564 -365 -711 -462 -707 -465 2 -2 103 -54 224 -116 413 -212 705 -366
973 -512 l163 -89 92 54 c51 30 112 66 137 79 50 28 567 327 700 405 211 124
311 185 307 190 -13 12 -621 -166 -1121 -328 -86 -28 -127 -35 -138 -23 -3 3
-167 83 -364 179 -197 95 -360 177 -361 182 -3 8 478 313 494 313 5 0 59 -65
122 -145 62 -80 117 -147 122 -150 5 -4 9 132 9 344 0 193 3 351 8 351 4 -1
32 -35 63 -78 290 -402 314 -429 426 -473 56 -22 68 -23 438 -23 l380 -1 3
958 c2 763 0 957 -10 956 -7 0 -112 -57 -233 -125z"/>
</g>
</svg>
